<svg id="cloudy"  viewBox="0 -12 512.0004 512"  xmlns="http://www.w3.org/2000/svg"><path d="m460.128906 203.121094c0 69.066406-55.988281 125.054687-125.054687 125.054687-69.066407 0-125.054688-55.988281-125.054688-125.054687s55.988281-125.054688 125.054688-125.054688c69.066406 0 125.054687 55.988282 125.054687 125.054688zm0 0" fill="#ffc73b"/><path d="m501.339844 370.972656c0 60.503906-49.054688 109.546875-109.550782 109.546875h-294c-49.824218 0-90.207031-40.382812-90.207031-90.203125 0-49.824218 40.382813-90.21875 90.207031-90.21875 3.515626 0 6.980469.203125 10.386719.597656.960938.109376 1.910157.230469 2.859375.375 15.980469-61.019531 71.226563-106.152343 137.109375-106.761718.445313-.007813.890625-.007813 1.34375-.007813 51.882813 0 97.308594 27.609375 122.414063 68.921875 6.445312-1.183594 13.097656-1.800781 19.886718-1.800781 32.097657 0 60.96875 13.804687 81 35.796875h.011719c17.722657 19.464844 28.539063 45.34375 28.539063 73.753906zm0 0" fill="#939090"/><g fill="#777575"><path d="m472.789062 297.21875c-103.304687-28.699219-157.421874 40.816406-157.421874 40.816406 0-36.378906 19.707031-74.8125 56.535156-74.8125 6.445312-1.183594 13.097656-1.800781 19.886718-1.800781 32.097657 0 60.96875 13.804687 81 35.796875zm0 0"/><path d="m121.34375 480.519531h-23.554688c-49.824218 0-90.207031-40.382812-90.207031-90.203125 0-49.824218 40.382813-90.21875 90.207031-90.21875 3.515626 0 6.980469.203125 10.386719.597656.960938.109376 1.910157.230469 2.859375.375-50.324218 0-101.855468 149.132813 10.308594 179.449219zm0 0"/><path d="m162.273438 344.101562s-11.511719-42.0625-51.238282-43.03125c15.980469-61.019531 71.226563-106.152343 137.109375-106.761718-59.128906 1.304687-94.894531 88.105468-85.871093 149.792968zm0 0"/></g><path d="m108.175781 300.695312c.960938.109376 1.910157.230469 2.859375.375-.988281-.019531-1.949218-.152343-2.859375-.375zm0 0" fill="#939090"/><path d="m335.074219 60.632812c4.1875 0 7.582031-3.394531 7.582031-7.578124v-45.476563c0-4.183594-3.394531-7.578125-7.582031-7.578125s-7.578125 3.394531-7.578125 7.578125v45.476563c0 4.183593 3.390625 7.578124 7.578125 7.578124zm0 0"/><path d="m253.476562 76.949219c1.40625 2.429687 3.953126 3.789062 6.574219 3.789062 1.285157 0 2.589844-.324219 3.78125-1.015625 3.625-2.09375 4.867188-6.726562 2.773438-10.351562l-22.738281-39.382813c-2.09375-3.625-6.730469-4.867187-10.351563-2.773437-3.625 2.089844-4.867187 6.726562-2.773437 10.351562zm0 0"/><path d="m161.941406 111.914062 39.382813 22.738282c1.195312.6875 2.496093 1.015625 3.78125 1.015625 2.621093 0 5.167969-1.359375 6.574219-3.789063 2.089843-3.625.847656-8.261718-2.777344-10.355468l-39.382813-22.738282c-3.625-2.09375-8.261719-.847656-10.351562 2.777344-2.09375 3.625-.851563 8.257812 2.773437 10.351562zm0 0"/><path d="m507.421875 278.773438-29.277344-12.632813c-3.839843-1.65625-8.300781.113281-9.960937 3.957031s.113281 8.304688 3.957031 9.960938l29.277344 12.632812c.976562.421875 1.996093.621094 2.996093.621094 2.933594 0 5.726563-1.714844 6.964844-4.578125 1.65625-3.84375-.113281-8.304687-3.957031-9.960937zm0 0"/><path d="m139.535156 210.699219h15.152344c4.1875 0 7.582031-3.394531 7.582031-7.578125 0-4.1875-3.394531-7.582032-7.582031-7.582032h-15.152344c-4.1875 0-7.582031 3.394532-7.582031 7.582032 0 4.183594 3.394531 7.578125 7.582031 7.578125zm0 0"/><path d="m502.769531 195.539062h-17.628906c-4.1875 0-7.578125 3.394532-7.578125 7.582032 0 4.183594 3.390625 7.578125 7.578125 7.578125h17.628906c4.1875 0 7.582031-3.394531 7.582031-7.578125 0-4.1875-3.394531-7.582032-7.582031-7.582032zm0 0"/><path d="m465.042969 135.667969c1.285156 0 2.589843-.328125 3.785156-1.015625l39.378906-22.738282c3.625-2.09375 4.867188-6.726562 2.773438-10.351562s-6.726563-4.867188-10.351563-2.777344l-39.382812 22.738282c-3.625 2.09375-4.867188 6.730468-2.773438 10.355468 1.40625 2.429688 3.953125 3.789063 6.570313 3.789063zm0 0"/><path d="m406.320312 79.722656c1.191407.691406 2.496094 1.015625 3.78125 1.015625 2.621094 0 5.167969-1.359375 6.570313-3.789062l22.738281-39.382813c2.09375-3.625.851563-8.261718-2.773437-10.351562-3.625-2.09375-8.261719-.851563-10.355469 2.773437l-22.734375 39.382813c-2.09375 3.625-.851563 8.261718 2.773437 10.351562zm0 0"/><path d="m449.988281 269.355469c11.605469-20.085938 17.71875-42.804688 17.71875-66.234375 0-73.136719-59.5-132.640625-132.632812-132.640625-21.046875 0-42 5.058593-60.59375 14.625-3.71875 1.914062-5.1875 6.484375-3.269531 10.207031 1.917968 3.722656 6.488281 5.1875 10.207031 3.273438 16.691406-8.589844 34.746093-12.945313 53.660156-12.945313 64.773437 0 117.46875 52.703125 117.46875 117.480469 0 21.097656-5.59375 41.539062-16.199219 59.535156-13.746094-5.675781-28.792968-8.8125-44.5625-8.8125-5.390625 0-10.800781.371094-16.148437 1.109375-12.980469-19.816406-30.566407-36.433594-51.117188-48.253906-22.722656-13.070313-48.667969-19.980469-75.027343-19.980469-10.628907 0-21.050782 1.121094-31.144532 3.25 3.269532-28.855469 17.242188-55.820312 39.246094-75.148438 3.144531-2.761718 3.457031-7.550781.695312-10.695312-2.761718-3.144531-7.554687-3.453125-10.699218-.691406-26.324219 23.121094-42.46875 55.933594-44.832032 90.710937-45.738281 14.921875-82.59375 51.234375-97.242187 98.683594-2.574219-.203125-5.15625-.304687-7.722656-.304687-53.925781-.003907-97.792969 43.867187-97.792969 97.789062s43.867188 97.789062 97.789062 97.789062h293.996094c28.933594 0 56.714844-10.636718 78.226563-29.949218 3.113281-2.796875 3.371093-7.589844.574219-10.703125-2.796876-3.113281-7.585938-3.371094-10.703126-.574219-18.722656 16.808594-42.910156 26.066406-68.097656 26.066406h-293.996094c-45.5625 0-82.628906-37.066406-82.628906-82.628906 0-45.566406 37.066406-82.632812 82.628906-82.632812 4.046876 0 8.132813.300781 12.148438.890624 3.8125.554688 7.457031-1.84375 8.4375-5.578124 15.582031-59.535157 69.5-101.113282 131.117188-101.113282 23.710937 0 47.042968 6.210938 67.46875 17.960938 19.824218 11.402344 36.582031 27.765625 48.460937 47.324218 1.632813 2.6875 4.757813 4.085938 7.84375 3.519532 6.085937-1.117188 12.316406-1.679688 18.519531-1.679688 56.226563 0 101.972656 45.742188 101.972656 101.96875 0 20.734375-6.183593 40.683594-17.882812 57.699219-2.371094 3.449219-1.496094 8.167969 1.953125 10.539063 3.449219 2.371093 8.167969 1.496093 10.542969-1.953126 13.441406-19.550781 20.546875-42.472656 20.546875-66.285156-.003907-43.414062-23.746094-81.386718-58.929688-101.617187zm0 0"/></svg>
