<svg id="sun" viewBox="0 0 612 612" fill="none" xmlns="http://www.w3.org/2000/svg">
<g filter="url(#filter0_i)">
<path d="M305.407 149.342C219.026 149.669 149.013 220.212 149.34 306.594C149.667 392.976 220.211 462.987 306.593 462.66C392.975 462.333 462.986 391.79 462.659 305.408C462.332 219.025 391.788 149.015 305.407 149.342Z" fill="#FFD600"/>
</g>
<path d="M152.84 306.581C152.52 222.132 220.972 153.161 305.42 152.841C389.869 152.522 458.839 220.971 459.159 305.422C459.479 389.87 391.029 458.841 306.58 459.16C222.13 459.48 153.16 391.03 152.84 306.581Z" stroke="#FFB800" stroke-width="7"/>
<path d="M346.037 109.384L346.037 109.385C344.287 111.961 341.135 113.644 337.078 113.659L273.467 113.9C269.409 113.915 266.243 112.257 264.475 109.694C262.706 107.13 262.279 103.583 263.733 99.7948L298.391 9.54973L298.391 9.54955C299.557 6.51346 300.961 5.08145 302.029 4.37732C303.113 3.66223 304.145 3.50574 304.855 3.50305C305.566 3.50036 306.598 3.64896 307.688 4.35565C308.761 5.05152 310.175 6.47291 311.364 9.50113L311.364 9.50162L346.704 99.4794C348.187 103.259 347.787 106.809 346.037 109.384Z" fill="#FFD600" stroke="#FFB800" stroke-width="7"/>
<path d="M300.636 602.5L300.636 602.501C301.825 605.528 303.239 606.949 304.312 607.645C305.402 608.351 306.435 608.5 307.145 608.497C307.856 608.494 308.888 608.338 309.972 607.623C311.04 606.919 312.443 605.488 313.609 602.452L313.609 602.451L348.266 512.205C349.72 508.418 349.294 504.872 347.524 502.307C345.755 499.744 342.59 498.085 338.534 498.1L274.922 498.341C270.866 498.357 267.713 500.04 265.964 502.615L300.636 602.5ZM300.636 602.5L265.297 512.52C265.297 512.52 265.296 512.52 265.296 512.52M300.636 602.5L265.296 512.52M265.296 512.52C263.814 508.743 264.215 505.193 265.964 502.616L265.296 512.52Z" fill="#FFD600" stroke="#FFB800" stroke-width="7"/>
<path d="M130.303 190.077L130.303 190.077C132.261 194.478 135.747 196.713 139.473 196.699C142.062 196.69 144.812 195.535 147.158 193.17L147.159 193.169L191.969 148.019C194.826 145.141 195.866 141.722 195.281 138.662C194.694 135.601 192.466 132.808 188.749 131.187L188.749 131.187L100.136 92.5498C100.136 92.5497 100.136 92.5496 100.135 92.5495C98.2259 91.7176 96.6059 91.3778 95.2919 91.3828C93.1522 91.3909 91.5583 92.3123 90.6644 93.6941L130.303 190.077ZM130.303 190.077L90.9973 101.759C90.9972 101.759 90.9972 101.759 90.9972 101.759M130.303 190.077L90.9972 101.759M90.9972 101.759C88.9484 97.1547 89.9881 94.74 90.6642 93.6944L90.9972 101.759Z" fill="#FFD600" stroke="#FFB800" stroke-width="7"/>
<path d="M481.697 421.924L481.697 421.925L521.002 510.243L521.002 510.244C523.05 514.847 522.011 517.261 521.333 518.309C520.438 519.69 518.843 520.612 516.706 520.62C515.392 520.625 513.772 520.285 511.862 519.453C511.862 519.453 511.862 519.453 511.862 519.453L423.25 480.814L423.249 480.814C419.533 479.195 417.304 476.401 416.718 473.342C416.133 470.284 417.172 466.863 420.03 463.983C420.03 463.983 420.03 463.983 420.03 463.983L464.84 418.833L464.84 418.833C467.188 416.467 469.939 415.312 472.529 415.302C476.253 415.288 479.739 417.523 481.697 421.924Z" fill="#FFD600" stroke="#FFB800" stroke-width="7"/>
<path d="M519.725 92.072L519.724 92.0713C518.82 90.6961 517.219 89.7867 515.079 89.7948C513.765 89.7998 512.148 90.1518 510.243 90.9992L519.725 92.072ZM519.725 92.072C520.409 93.1116 521.467 95.5168 519.452 100.138L522.661 101.537L519.452 100.138L480.816 188.75C480.816 188.75 480.815 188.75 480.815 188.75C478.889 193.167 475.42 195.428 471.696 195.442C469.106 195.452 466.347 194.318 463.981 191.97L418.833 147.161L418.833 147.161C415.955 144.304 414.889 140.891 415.451 137.827L415.451 137.827C416.013 134.764 418.22 131.954 421.926 130.304C421.926 130.304 421.926 130.304 421.926 130.304L510.243 90.9992L519.725 92.072Z" fill="#FFD600" stroke="#FFB800" stroke-width="7"/>
<path d="M148.018 420.033L148.018 420.033L193.167 464.84C196.047 467.698 197.112 471.11 196.549 474.173L196.549 474.174C195.988 477.236 193.78 480.047 190.075 481.696L190.075 481.696L101.757 521.003L101.756 521.003C99.8525 521.851 98.2354 522.203 96.9215 522.208C94.7833 522.216 93.181 521.306 92.2763 519.931C91.5916 518.89 90.5332 516.485 92.5482 511.863L89.343 510.466L92.5483 511.863L131.185 423.251L131.185 423.251C133.11 418.835 136.579 416.574 140.303 416.56C142.893 416.55 145.652 417.684 148.018 420.033Z" fill="#FFD600" stroke="#FFB800" stroke-width="7"/>
<path d="M512.207 263.736L512.208 263.736L602.451 298.391C602.451 298.391 602.451 298.391 602.451 298.391C605.486 299.556 606.919 300.96 607.624 302.029C608.339 303.114 608.496 304.146 608.499 304.855C608.501 305.567 608.353 306.6 607.646 307.69C606.95 308.763 605.529 310.177 602.502 311.367L512.523 346.706L512.523 346.707C510.954 347.323 509.43 347.617 507.988 347.622C502.56 347.643 498.368 343.545 498.344 337.08L498.102 273.468C498.102 273.468 498.102 273.468 498.102 273.468C498.078 267.003 502.238 262.874 507.666 262.854C509.105 262.848 510.631 263.13 512.207 263.736Z" fill="#FFD600" stroke="#FFB800" stroke-width="7"/>
<path d="M99.4792 265.297L99.4794 265.297C101.05 264.68 102.572 264.386 104.014 264.381C109.444 264.36 113.635 268.458 113.66 274.923L113.9 338.535C113.925 344.999 109.764 349.129 104.335 349.149C102.894 349.155 101.369 348.873 99.7912 348.267C99.7911 348.267 99.791 348.267 99.7909 348.267L9.54933 313.613C6.51242 312.446 5.08016 311.041 4.37597 309.973C3.66088 308.888 3.50449 307.856 3.5018 307.146C3.49911 306.435 3.64786 305.402 4.3547 304.312C5.0507 303.239 6.472 301.824 9.49918 300.636L9.49931 300.636L99.4792 265.297Z" fill="#FFD600" stroke="#FFB800" stroke-width="7"/>
<defs>
<filter id="filter0_i" x="148.747" y="148.748" width="314.505" height="314.505" filterUnits="userSpaceOnUse" color-interpolation-filters="sRGB">
<feFlood flood-opacity="0" result="BackgroundImageFix"/>
<feBlend mode="normal" in="SourceGraphic" in2="BackgroundImageFix" result="shape"/>
<feColorMatrix in="SourceAlpha" type="matrix" values="0 0 0 0 0 0 0 0 0 0 0 0 0 0 0 0 0 0 127 0" result="hardAlpha"/>
<feOffset/>
<feGaussianBlur stdDeviation="4"/>
<feComposite in2="hardAlpha" operator="arithmetic" k2="-1" k3="1"/>
<feColorMatrix type="matrix" values="0 0 0 0 1 0 0 0 0 1 0 0 0 0 1 0 0 0 1 0"/>
<feBlend mode="normal" in2="shape" result="effect1_innerShadow"/>
</filter>
</defs>
</svg>
