<svg id="today"  viewBox="0 0 24 24"  xmlns="http://www.w3.org/2000/svg">
  <path d="m23 8.04h-22c-.552 0-1 .448-1 1v11.96c0 1.654 1.346 3 3 3h18c1.654 0 3-1.346 3-3v-11.96c0-.552-.448-1-1-1z" fill="#eceff1"/>
  <path d="m21 3h-18c-1.657 0-3 1.343-3 3v3.04h24v-3.04c0-1.657-1.343-3-3-3z" fill="#2196f3"/>
  <path d="m11 19.75c-.019 0-.038 0-.057-.002-.218-.017-.418-.128-.548-.305l-2.75-3.75c-.245-.334-.172-.803.162-1.048.333-.244.803-.173 1.048.162l2.233 3.045 5.132-5.132c.293-.293.768-.293 1.061 0s.293.768 0 1.061l-5.75 5.75c-.142.14-.333.219-.531.219z"/>
  <path d="m21.25 24h-18.5c-1.517 0-2.75-1.233-2.75-2.75v-16.5c0-1.517 1.233-2.75 2.75-2.75h18.5c1.517 0 2.75 1.233 2.75 2.75v16.5c0 1.517-1.233 2.75-2.75 2.75zm-18.5-20.5c-.689 0-1.25.561-1.25 1.25v16.5c0 .689.561 1.25 1.25 1.25h18.5c.689 0 1.25-.561 1.25-1.25v-16.5c0-.689-.561-1.25-1.25-1.25z"/>
  <path d="m23.25 9.5h-22.5c-.414 0-.75-.336-.75-.75s.336-.75.75-.75h22.5c.414 0 .75.336.75.75s-.336.75-.75.75z"/>
  <path d="m5.75 6c-.414 0-.75-.336-.75-.75v-4.5c0-.414.336-.75.75-.75s.75.336.75.75v4.5c0 .414-.336.75-.75.75z"/>
  <path d="m18.25 6c-.414 0-.75-.336-.75-.75v-4.5c0-.414.336-.75.75-.75s.75.336.75.75v4.5c0 .414-.336.75-.75.75z"/>
</svg>
