<svg id='cloude2' viewBox="0 0 1280 855" fill="none" xmlns="http://www.w3.org/2000/svg">
<path d="M813.202 4.00732L813.128 4.01447L813.053 4.01837C812.14 4.06641 810.177 4.25403 807.668 4.49384C805.07 4.74213 801.887 5.04645 798.676 5.30975C712.804 13.4839 628.009 75.3748 575.325 168.929C571.157 176.473 564.809 188.874 561.362 196.556C559.587 200.511 557.825 204.116 556.399 206.759C555.693 208.07 555.035 209.208 554.477 210.05C554.208 210.457 553.897 210.893 553.568 211.264C553.409 211.442 553.158 211.706 552.828 211.953C552.616 212.112 551.789 212.723 550.569 212.723H550.279L549.993 212.676C549.592 212.609 549.114 212.445 548.909 212.374L548.874 212.362C548.542 212.249 548.114 212.096 547.611 211.912C546.602 211.543 545.228 211.027 543.598 210.407C540.335 209.164 535.999 207.485 531.393 205.683L531.384 205.679C501.876 194.034 485.009 191.161 459.338 193.113C417.233 196.367 379.901 209.17 344.29 232.549L344.283 232.554C312.717 253.17 283.477 283.197 263.343 315.668C254.095 330.623 243.512 353.466 237.696 371.308L237.693 371.319C236.198 375.854 234.831 380.128 233.841 383.37C233.345 384.995 232.95 386.339 232.682 387.319C232.547 387.812 232.453 388.183 232.394 388.439C232.383 388.486 232.375 388.526 232.368 388.559C232.356 389.226 232.223 390.822 230.871 392.011C229.476 393.238 227.697 393.208 226.837 393.17C224.798 393.078 221.283 392.363 215.549 391.148C181.852 384.139 134.588 391.847 99.8172 410.411L99.8124 410.413C72.1507 425.127 48.021 447.696 32.0561 473.847L32.0538 473.851C1.53474 523.702 -5.00922 590.615 14.7868 649.709C33.8791 706.493 76.0783 752.181 128.878 773.477L128.886 773.481C154.049 783.703 170.2 786.723 197.869 786.723C216.263 786.723 219.181 786.526 230.431 784.102L230.44 784.1C245.695 780.852 265.873 774.327 281.575 767.513L281.583 767.509L281.59 767.506L293.49 762.406L295.571 761.514L297.238 763.047L305.921 771.031C305.923 771.033 305.925 771.035 305.927 771.037C335.807 798.145 367.898 817.582 402.802 829.612C426.191 837.606 446.187 841.55 473.001 843.331L473.006 843.331C531.053 847.273 588.518 831.232 644.78 795.176L644.785 795.173L653.085 789.873L655.313 788.451L657.291 790.204L666.988 798.802C696.747 825.123 734.117 842.262 776.917 849.066C784.296 850.223 796.376 850.823 808.369 850.823C820.391 850.823 831.925 850.22 838.247 849.079C884.54 840.625 923.995 818.529 960.043 781.101C970.422 770.226 984.957 752.017 991.301 741.868L991.308 741.857L994.208 737.257L995.871 734.619L998.682 735.967L1015.78 744.167L1015.79 744.17C1046.34 758.897 1060.62 763.256 1079.21 764.026L1079.07 767.523L1079.21 764.026C1135.48 766.371 1191.61 736.961 1228.52 685.289L1231.37 687.323L1228.52 685.288C1272.65 623.522 1287.76 532.599 1267.37 450.163C1246.51 365.725 1190.49 303.224 1120.5 285.213L1120.48 285.209L1120.47 285.206C1117.33 284.371 1114.21 283.635 1111.73 283.11C1110.49 282.847 1109.43 282.641 1108.62 282.503C1107.83 282.37 1107.46 282.333 1107.38 282.325C1107.37 282.324 1107.37 282.323 1107.37 282.323C1106.39 282.323 1105.39 282.177 1104.51 281.904C1104.07 281.768 1103.58 281.575 1103.1 281.296C1102.7 281.064 1102.06 280.625 1101.56 279.877C1101.35 279.564 1101.23 279.287 1101.18 279.174C1101.09 278.975 1101.02 278.781 1100.97 278.621C1100.86 278.298 1100.76 277.927 1100.66 277.551C1100.46 276.787 1100.24 275.793 1100 274.661C1099.53 272.384 1098.97 269.393 1098.42 266.225L1098.42 266.224C1076.51 140.436 991.039 39.7075 883.487 11.7103L883.486 11.71C858.042 5.07672 831.471 2.25818 813.202 4.00732Z" fill="white" stroke="#B7BFC0" stroke-width="7"/>
</svg>
