<svg id="cloude1" viewBox="0 0 1278 672" fill="none" xmlns="http://www.w3.org/2000/svg">
<path d="M647.5 1.00036C600.3 5.90036 551.9 23.5004 511.7 50.3004C481.8 70.3004 458.3 92.2004 438.1 119C425.7 135.4 419.6 145.5 420.8 147.6C421.6 149.1 421.8 149.1 422.4 147.5C422.7 146.6 422.7 145.3 422.3 144.8C421.9 144.1 422.2 144 422.9 144.4C423.7 145 424 144.6 423.8 143.4C423.6 142.2 424 141.6 424.8 141.8C425.5 141.9 426 141.5 425.9 140.8C425.8 140.1 425.8 138.8 425.9 138C426 136.7 426.1 136.7 427.1 138C428 139.3 428.1 139.3 427.9 138C427.8 137.2 427.8 135.8 427.9 135C428 133.7 428.1 133.7 429.1 135C430 136.3 430.1 136.3 429.9 135C429.8 134.2 429.8 132.8 429.9 132C430 130.7 430.1 130.7 431.1 132C432 133.3 432.1 133.3 431.9 132C431.8 131.2 431.8 129.8 431.9 129C432 127.7 432.1 127.7 433.1 129C433.9 130.2 434 130.1 433.8 128.5C433.6 127.3 434 126.6 434.8 126.8C435.5 126.9 436 126.3 435.8 125.3C435.6 124.3 436.1 123.5 437 123.5C437.8 123.5 438.5 122.6 438.5 121.5C438.5 120.4 439.2 119.5 440 119.5C440.8 119.5 441.4 118.7 441.4 117.7C441.3 116.8 441.6 116.3 442.1 116.6C442.6 116.9 442.9 116.6 442.8 115.9C442.6 115.2 443.2 114.6 444 114.5C444.8 114.5 445.4 113.7 445.4 112.7C445.3 111.8 445.7 111.3 446.3 111.7C446.8 112 447 111.8 446.7 111.3C446 110.3 448.7 107.3 449.9 107.7C450.2 107.8 450.4 107.2 450.4 106.5C450.3 105.7 450.7 105.3 451.3 105.7C451.9 106.1 452 105.8 451.5 105C450.9 104.1 451.1 103.9 452 104.5C452.8 105 453.1 104.9 452.7 104.3C452.3 103.7 452.7 102.7 453.5 102C454.3 101.3 455 101.1 455 101.5C455 101.9 455.7 101.7 456.5 101C457.4 100.3 457.9 99.1004 457.6 98.3004C457.3 97.5004 457.5 97.2004 458.1 97.5004C459.2 98.2004 463.7 93.1004 463.2 91.7004C463.1 91.2004 463.3 91.1004 463.8 91.4004C465 92.1004 472.2 84.6004 471.3 83.5004C470.8 83.1004 471.1 83.0004 471.8 83.4004C473.3 84.3004 478.3 80.3004 477.5 78.9004C476.9 78.1004 478.8 76.6004 480.5 76.5004C481.1 76.4004 481.4 75.9004 481.3 75.3004C481.2 74.7004 481.8 74.3004 482.8 74.4004C483.7 74.4004 484.5 74.0004 484.5 73.5004C484.6 71.6004 486.1 70.0004 487.2 70.6004C487.8 71.0004 488 70.8004 487.7 70.3004C487.3 69.7004 487.8 69.3004 488.7 69.4004C489.7 69.4004 490.5 68.8004 490.5 68.0004C490.6 67.2004 491.2 66.6004 491.9 66.8004C492.6 66.9004 492.9 66.6004 492.5 66.0004C492.1 65.4004 492.6 65.3004 493.6 65.7004C494.7 66.1004 495.1 65.9004 494.7 65.3004C493.9 64.0004 496.4 61.7004 497.5 62.8004C498 63.2004 498 62.9004 497.6 62.3004C497.1 61.4004 497.4 61.2004 498.5 61.6004C499.5 62.0004 500 61.8004 499.8 60.9004C499.6 60.0004 500.2 59.6004 501.5 59.8004C502.6 60.0004 503.2 59.9004 502.8 59.4004C501.6 58.3004 503.9 56.0004 505.6 56.7004C506.5 57.0004 507 56.7004 506.8 55.9004C506.6 55.0004 507.2 54.6004 508.3 54.8004C509.3 55.0004 509.9 54.5004 509.8 53.8004C509.6 53.0004 510.2 52.6004 511.3 52.8004C512.3 53.0004 512.9 52.5004 512.8 51.8004C512.6 51.0004 513.2 50.6004 514.4 50.8004C515.6 51.0004 516 50.7004 515.4 49.9004C514.9 49.1004 515.1 48.9004 516 49.5004C516.9 50.1004 517.1 49.9004 516.5 49.0004C515.9 48.0004 516.1 47.8004 517.4 48.3004C518.4 48.7004 518.9 48.6004 518.5 48.0004C518.1 47.4004 518.7 47.3004 519.7 47.6004C521.2 48.1004 521.3 48.0004 520 47.1004C518.7 46.2004 518.7 46.0004 520 45.9004C520.8 45.8004 522.1 45.8004 522.8 45.9004C523.5 46.0004 523.9 45.5004 523.8 44.8004C523.6 44.0004 524.2 43.6004 525.4 43.8004C526.4 44.0004 526.9 43.7004 526.5 43.1004C526.1 42.4004 526.5 42.3004 527.5 42.6004C528.5 43.0004 529 42.8004 528.8 41.9004C528.6 41.1004 529.2 40.6004 530.2 40.6004C531.2 40.7004 531.7 40.4004 531.4 39.9004C531.1 39.4004 531.7 39.3004 532.6 39.7004C533.8 40.1004 534.1 40.0004 533.6 39.2004C533.1 38.4004 533.5 38.2004 534.6 38.7004C535.8 39.1004 536.1 39.0004 535.6 38.2004C535.1 37.4004 535.5 37.2004 536.6 37.7004C537.8 38.1004 538.1 38.0004 537.6 37.2004C537.1 36.4004 537.4 36.2004 538.5 36.6004C539.5 37.0004 540 36.8004 539.8 35.9004C539.6 34.9004 540.3 34.6004 542 34.8004C544 35.0004 544.2 34.8004 543 33.9004C541.8 33.1004 542.1 33.0004 544 33.5004C546 34.0004 546.2 33.9004 545 33.0004C543.8 32.1004 544 32.0004 546 32.5004C548 33.0004 548.2 32.9004 547 32.0004C545.8 31.1004 546 31.0004 548 31.5004C550 32.0004 550.2 31.9004 549 31.0004C547.8 30.1004 548 30.0004 549.9 30.5004C551.5 31.0004 552 30.9004 551.6 30.1004C551.1 29.4004 551.5 29.3004 552.6 29.7004C553.8 30.1004 554.1 30.0004 553.6 29.2004C553.1 28.4004 553.5 28.2004 554.6 28.7004C555.8 29.1004 556.1 29.0004 555.6 28.2004C555.1 27.4004 555.5 27.2004 556.6 27.7004C557.8 28.2004 558.1 28.0004 557.5 27.1004C556.9 26.1004 557.3 26.0004 559.1 26.5004C561 27.0004 561.2 26.9004 560 26.0004C558.8 25.1004 559 25.0004 560.9 25.5004C562.5 26.0004 563 25.9004 562.6 25.1004C561.9 24.0004 563.1 23.6004 566.4 24.0004C567.6 24.1004 568 23.8004 567.4 22.9004C566.9 22.0004 567.2 21.9004 568.4 22.3004C569.3 22.7004 569.9 22.6004 569.6 22.1004C569.2 21.6004 570 21.4004 571.2 21.8004C572.8 22.2004 573.1 22.0004 572.5 21.0004C571.9 20.0004 572.1 19.8004 573.4 20.3004C574.5 20.7004 574.9 20.6004 574.4 19.9004C574 19.1004 574.5 19.0004 576 19.5004C577.6 20.0004 578 19.9004 577.5 19.0004C577 18.1004 577.4 18.0004 579 18.5004C580.4 19.0004 581 18.8004 580.6 18.2004C580.2 17.6004 580.8 17.4004 582.2 17.8004C583.7 18.2004 584.1 18.0004 583.5 17.1004C582.9 16.1004 583.4 16.0004 585.1 16.5004C587 17.0004 587.2 16.9004 586 16.0004C584.8 15.2004 585.2 15.1004 587.4 15.6004C589.6 16.1004 590.1 16.0004 589.5 15.0004C589 14.1004 589.3 14.0004 591 14.5004C592.6 15.0004 593 14.9004 592.5 14.1004C592 13.3004 592.6 13.1004 594.6 13.6004C596.6 14.1004 597.1 14.0004 596.5 13.0004C596 12.1004 596.3 12.0004 598 12.5004C599.6 13.0004 600 12.9004 599.5 12.1004C599 11.3004 599.6 11.1004 601.6 11.6004C603.5 12.1004 604.1 12.0004 603.6 11.1004C603 10.2004 603.6 10.1004 605.7 10.5004C607.9 11.0004 608.2 10.9004 607 10.1004C605.9 9.30036 606.3 9.20036 608.9 9.70036C611.6 10.2004 612.1 10.0004 611.5 9.00036C610.9 8.00036 611.3 7.90036 613.4 8.40036C615.2 8.80036 615.9 8.70036 615.5 8.10036C615.1 7.40036 616 7.20036 618 7.60036C620 8.10036 621 7.90036 621 7.00036C621 6.20036 621.9 6.00036 623.6 6.40036C625.3 6.90036 626 6.70036 625.5 6.00036C625 5.20036 625.9 5.10036 628.4 5.50036C630.9 6.00036 632 5.90036 632 5.00036C632 4.10036 633.1 4.00036 635.8 4.40036C638.5 4.90036 639.1 4.80036 638 4.00036C636.9 3.30036 638.2 3.20036 642.4 3.60036C647 4.20036 648.1 4.00036 647.5 3.10036C646.9 2.10036 648.3 1.90036 653.6 2.40036C657.4 2.70036 659.7 2.70036 658.8 2.30036C657.9 1.80036 667.4 1.50036 679.9 1.50036C692.5 1.50036 702.3 1.90036 701.7 2.30036C701 2.80036 703.3 2.80036 706.8 2.50036C711.4 2.00036 713 2.10036 713 3.00036C713 3.90036 714.4 4.10036 718.3 3.60036C722.1 3.10036 723.1 3.20036 722 4.00036C720.9 4.80036 721.6 5.00036 724.8 4.50036C727.7 4.00036 729 4.20036 729 5.00036C729 5.90036 730.1 6.00036 732.6 5.50036C735.2 5.10036 736 5.20036 735.5 6.00036C734.9 6.90036 735.6 7.00036 737.9 6.50036C740 6.10036 741 6.20036 741 7.00036C741 7.90036 742 8.00036 744 7.60036C746 7.20036 746.9 7.40036 746.5 8.10036C746.1 8.70036 746.8 8.80036 748.4 8.40036C750.1 8.00036 751 8.20036 751 9.00036C751 9.80036 751.9 10.0004 753.6 9.60036C755.3 9.10036 755.9 9.30036 755.5 10.0004C755 10.7004 755.7 10.9004 757.6 10.4004C759.7 9.90036 760.1 10.0004 759.5 11.0004C758.9 12.0004 759.3 12.1004 761.4 11.6004C763.4 11.1004 764 11.3004 763.5 12.1004C763 12.9004 763.4 13.0004 765 12.5004C766.7 12.0004 767 12.1004 766.5 13.0004C765.9 14.0004 766.4 14.1004 768.4 13.6004C770.4 13.1004 771 13.3004 770.5 14.1004C770 14.9004 770.4 15.0004 772 14.5004C773.7 14.0004 774.1 14.1004 773.5 15.1004C772.9 16.0004 773.3 16.2004 774.8 15.8004C776.2 15.4004 776.8 15.6004 776.4 16.2004C776 16.8004 776.6 17.0004 778 16.5004C779.7 16.0004 780.1 16.1004 779.5 17.1004C778.9 18.0004 779.3 18.2004 780.8 17.8004C782.2 17.4004 782.8 17.6004 782.4 18.2004C782 18.8004 782.6 19.0004 784 18.5004C785.6 18.0004 786 18.1004 785.5 19.0004C785 19.9004 785.4 20.0004 787 19.5004C788.5 19.0004 789 19.1004 788.6 19.9004C788.1 20.6004 788.5 20.7004 789.6 20.3004C790.9 19.8004 791.1 20.0004 790.5 21.0004C789.9 22.0004 790.2 22.2004 791.8 21.8004C793.2 21.4004 793.8 21.6004 793.3 22.3004C792.9 22.9004 793.3 23.1004 794.3 22.7004C795.3 22.3004 796 22.5004 796 23.1004C796 23.7004 796.7 23.9004 797.6 23.6004C798.6 23.2004 798.9 23.4004 798.4 24.2004C797.9 25.0004 798.2 25.1004 799.4 24.7004C800.5 24.3004 800.9 24.4004 800.4 25.1004C800 25.9004 800.5 26.0004 802.1 25.5004C804 25.0004 804.2 25.1004 803 26.0004C801.8 26.9004 802 27.0004 803.9 26.5004C805.7 26.0004 806.1 26.1004 805.5 27.1004C804.9 28.0004 805.2 28.2004 806.4 27.7004C807.5 27.2004 807.9 27.4004 807.4 28.2004C806.9 29.0004 807.2 29.1004 808.4 28.7004C809.4 28.3004 809.9 28.4004 809.5 29.0004C809.1 29.6004 809.9 29.9004 811.2 29.7004C812.7 29.6004 813.4 30.0004 813.2 30.8004C813 31.8004 813.6 31.9004 815.1 31.5004C816.5 31.0004 817 31.1004 816.6 31.9004C816.1 32.6004 816.5 32.7004 817.6 32.3004C818.8 31.9004 819.1 32.0004 818.6 32.8004C818.1 33.6004 818.4 33.8004 819.5 33.4004C820.5 33.0004 821 33.2004 820.8 34.0004C820.6 34.7004 821.2 35.5004 822 35.7004C823.3 36.1004 823.3 36.0004 822 35.0004C820.7 34.0004 820.7 33.9004 822 34.3004C822.8 34.5004 823.4 35.3004 823.2 36.0004C823 36.8004 823.5 37.0004 824.5 36.6004C825.6 36.2004 825.9 36.4004 825.4 37.2004C824.9 38.0004 825.2 38.1004 826.4 37.7004C827.5 37.2004 827.9 37.4004 827.4 38.2004C826.9 39.0004 827.2 39.1004 828.4 38.7004C829.5 38.3004 829.9 38.4004 829.5 39.1004C829.1 39.7004 829.6 40.0004 830.6 39.8004C831.8 39.6004 832.4 40.0004 832.2 40.9004C832 41.8004 832.5 42.0004 833.5 41.6004C834.6 41.2004 834.9 41.4004 834.4 42.2004C833.9 43.0004 834.2 43.1004 835.4 42.7004C836.5 42.3004 836.9 42.4004 836.5 43.1004C836.1 43.7004 836.6 44.0004 837.6 43.8004C838.8 43.6004 839.4 44.0004 839.2 44.8004C839.1 45.5004 839.7 46.0004 840.7 45.8004C841.8 45.6004 842.4 46.0004 842.2 46.9004C842 47.8004 842.5 48.0004 843.5 47.6004C844.4 47.3004 844.8 47.4004 844.5 48.0004C844.2 48.6004 844.6 48.7004 845.5 48.4004C846.5 48.0004 847 48.2004 846.8 49.1004C846.6 50.0004 847.2 50.4004 848.3 50.2004C849.3 50.0004 849.9 50.5004 849.8 51.2004C849.6 52.0004 850.2 52.4004 851.4 52.2004C852.4 52.0004 852.9 52.3004 852.6 52.9004C852.2 53.4004 852.5 54.2004 853.1 54.6004C853.9 55.1004 854 54.9004 853.5 54.0004C853 53.1004 853.1 52.9004 853.9 53.4004C854.5 53.8004 854.8 54.6004 854.4 55.1004C854.1 55.7004 854.6 56.0004 855.6 55.8004C856.8 55.6004 857.4 56.0004 857.2 56.9004C857 57.7004 857.5 58.0004 858.4 57.7004C860.1 57.0004 862.3 59.3004 861.2 60.5004C860.8 61.0004 861.3 61.0004 862.2 60.7004C864 60.1004 866.4 62.2004 865.2 63.5004C864.8 64.0004 865.3 64.0004 866.3 63.7004C867.4 63.3004 867.9 63.4004 867.5 64.0004C867.1 64.6004 867.4 64.9004 868.1 64.8004C868.8 64.6004 869.4 65.2004 869.5 66.0004C869.5 66.8004 870.3 67.4004 871.3 67.4004C872.2 67.3004 872.7 67.7004 872.3 68.3004C871.9 68.9004 872.2 69.0004 873 68.5004C873.9 68.0004 874.1 68.1004 873.6 68.9004C873.1 69.6004 873.4 69.9004 874.2 69.8004C874.9 69.6004 875.4 70.1004 875.2 70.9004C875 71.7004 875.5 72.0004 876.4 71.7004C877.3 71.3004 877.9 71.5004 877.7 71.9004C877.6 72.4004 877.8 72.7004 878.1 72.6004C879.1 72.4004 882 75.2004 881.5 76.0004C880.7 77.2004 884.8 80.3004 886.1 79.4004C886.8 79.0004 887.1 79.1004 886.7 79.7004C885.9 81.0004 889.4 84.3004 890.5 83.3004C890.9 82.8004 891 83.1004 890.5 83.9004C889.9 84.9004 890.1 85.1004 891 84.5004C891.9 83.9004 892.1 84.1004 891.5 85.0004C891 85.8004 891.1 86.1004 891.7 85.7004C893 84.9004 897.3 89.4004 896.3 90.5004C895.8 90.9004 896.1 91.0004 896.9 90.5004C897.9 89.9004 898.1 90.1004 897.5 91.0004C896.9 91.9004 897.1 92.1004 898 91.5004C898.9 90.9004 899.1 91.1004 898.5 92.0004C897.9 92.9004 898.1 93.1004 899 92.5004C899.9 91.9004 900.1 92.1004 899.5 93.0004C898.9 93.9004 899.1 94.1004 900 93.5004C900.9 92.9004 901.1 93.1004 900.5 94.0004C899.9 94.9004 900.1 95.1004 901 94.5004C901.9 93.9004 902.1 94.1004 901.5 95.0004C900.9 95.9004 901.1 96.1004 902 95.5004C902.9 94.9004 903.1 95.1004 902.5 96.0004C901.9 96.9004 902.1 97.1004 903 96.5004C903.9 95.9004 904.1 96.1004 903.5 97.0004C903 97.9004 903.1 98.1004 903.8 97.6004C904.6 97.1004 904.8 97.5004 904.3 98.6004C903.8 99.9004 904.1 100.2 905.2 99.8004C906.1 99.4004 906.7 99.7004 906.6 100.3C906.6 101 906.8 101.5 907.1 101.5C908.5 101.5 910.9 104.3 910.3 105.3C909.9 105.9 910.2 106 911 105.5C911.9 104.9 912.1 105.1 911.5 106C911 106.8 911.1 107.1 911.7 106.7C912.3 106.3 912.7 106.8 912.6 107.7C912.6 108.7 913 109.5 913.7 109.5C915.3 109.5 917.5 111.7 917.5 113.3C917.5 114 917.8 114.5 918.1 114.5C919.6 114.5 921.8 117.3 921.3 118.6C921 119.5 921.3 120 922.1 119.8C922.9 119.6 923.4 120.1 923.2 120.8C923.1 121.6 923.4 121.9 924 121.5C924.6 121.2 924.7 121.5 924.4 122.5C924 123.5 924.2 124 925.1 123.8C926 123.6 926.4 124.2 926.2 125.5C926 127.1 926.1 127.2 926.9 126C927.9 124.7 928 124.7 928.1 126C928.2 126.8 928.2 127.9 928.1 128.3C928 128.8 928.4 128.9 929 128.5C929.6 128.2 929.7 128.5 929.4 129.5C929 130.5 929.2 131 930.1 130.8C931 130.6 931.4 131.2 931.2 132.4C931 133.6 931.3 134 932.1 133.4C932.9 132.9 933.1 133.1 932.5 134C931.9 134.9 932.1 135.1 933 134.5C934 133.9 934.2 134.1 933.7 135.4C933.2 136.5 933.4 136.9 934.2 136.4C934.9 135.9 935 136.1 934.5 137C934 137.9 934.1 138.1 934.8 137.6C935.6 137.1 935.8 137.5 935.3 138.6C934.8 139.9 935 140.1 936 139.5C936.9 138.9 937.1 139.1 936.5 140C936 140.9 936.1 141.1 936.8 140.6C938 139.9 938.4 141.1 938.1 143.8C938 144.5 938.5 144.9 939.2 144.8C940 144.6 940.4 145.2 940.2 146.4C940 147.4 940.3 147.9 940.9 147.5C941.6 147.1 941.7 147.5 941.4 148.5C941 149.5 941.2 150 942.1 149.8C942.9 149.6 943.4 150.2 943.4 151.2C943.3 152.2 943.6 152.7 944.1 152.4C944.6 152.1 944.7 152.7 944.3 153.6C943.9 154.8 944 155.1 944.8 154.6C946 153.9 946.4 155.1 946.1 157.9C945.9 158.6 946.3 158.9 946.9 158.5C947.6 158.1 947.7 158.5 947.3 159.6C946.9 160.8 947 161.1 947.8 160.6C948.6 160.1 948.8 160.4 948.4 161.5C948 162.5 948.2 163 949.1 162.8C950 162.6 950.4 163.3 950.3 164.8C950.1 166.1 950.4 166.9 951 166.5C952 165.9 952.4 167.2 952.1 169.9C951.9 170.6 952.3 170.9 952.9 170.5C954 169.9 954.4 171 954.1 174.5C953.9 176.2 954.1 176.3 955 175C955.9 173.8 956 174 955.5 176C955 178 955.1 178.2 956 177C956.9 175.8 957 176 956.5 177.9C956 179.6 956.1 180 957 179.5C957.9 179 958 179.4 957.5 181.1C957 183 957.1 183.2 958 182C958.9 180.8 959 181 958.5 182.9C958 184.6 958.1 185 959 184.5C959.9 184 960 184.4 959.5 186.1C959 188 959.1 188.2 960 187C960.9 185.8 961 186 960.5 187.9C960 189.6 960.1 190 961 189.5C961.9 189 962 189.4 961.5 191C961 192.4 961.2 193 961.8 192.6C962.4 192.2 962.6 192.9 962.3 194.2C961.9 196.1 962 196.2 963 195C964 193.8 964.1 193.9 963.7 195.8C963.4 197 963.6 197.7 964.1 197.4C964.7 197.1 964.8 197.9 964.4 199.6C963.9 201.6 964 202.1 965 201.5C965.9 201 966 201.4 965.5 203.1C965 205 965.1 205.2 966 204C966.8 202.8 966.9 203.2 966.4 205.4C965.9 207.6 966 208.1 967 207.5C968 206.9 968.1 207.4 967.6 209.6C967.1 211.7 967.2 212.1 968 211C968.7 209.9 968.8 210.4 968.4 213C968 215.8 968.1 216.2 969 215C969.9 213.8 970 214.1 969.5 216.3C969.1 218.2 969.3 218.9 969.9 218.5C970.6 218.1 970.7 219 970.3 221.1C969.8 223.6 970 224.1 971 223.5C972 222.9 972.1 223.3 971.6 225.4C971.2 227.1 971.3 227.9 971.9 227.6C972.5 227.2 972.7 228.4 972.4 230.7C971.9 233.7 972.1 234.2 973 233C973.9 231.8 974 232.4 973.5 235.5C973.1 238.4 973.2 239.1 974 238C974.7 236.9 974.8 237.9 974.3 241.4C973.8 245.3 974 246.1 975 245.5C976 244.9 976.2 245.5 975.7 248.3C975.1 252.2 976.2 253.3 980.1 252.3C981.7 251.8 982.1 252 981.5 253C980.9 254 981.6 254.1 984.6 253.6C987.5 253.1 988.1 253.2 987 254C985.9 254.8 986.2 254.9 988.4 254.4C990.6 253.9 991.1 254 990.5 255C989.9 255.9 990.6 256.1 993.1 255.5C995.7 255 996.1 255.1 995 256C993.8 256.8 994.2 256.9 996.4 256.4C998.6 255.9 999.1 256 998.5 257C997.9 258 998.3 258.1 1000.4 257.6C1002.4 257.1 1003 257.3 1002.5 258.1C1002 258.9 1002.4 259 1004 258.5C1005.7 258 1006 258.1 1005.5 259C1004.9 260 1005.4 260.1 1007.4 259.6C1009.4 259.1 1010 259.3 1009.5 260.1C1009 260.9 1009.4 261 1011 260.5C1012.6 260 1013 260.1 1012.5 261C1012 261.9 1012.4 262 1014 261.5C1015.6 261 1016 261.1 1015.5 262C1015 262.9 1015.4 263 1017 262.5C1018.7 262 1019.1 262.1 1018.5 263.1C1017.9 264 1018.3 264.2 1019.8 263.8C1021.2 263.4 1021.8 263.6 1021.4 264.2C1021 264.8 1021.6 265 1023 264.5C1024.6 264 1025 264.1 1024.5 265C1024 265.9 1024.4 266 1026.1 265.5C1028 265 1028.2 265.1 1027 266C1025.8 266.9 1026 267 1027.9 266.5C1029.6 266 1030 266.1 1029.5 267C1029 267.9 1029.4 268 1031.1 267.5C1033 267 1033.2 267.1 1032 268C1030.8 268.9 1031 269 1032.9 268.5C1034.6 268 1035 268.1 1034.5 269C1034 269.9 1034.4 270 1036 269.5C1037.5 269 1038 269.1 1037.6 269.9C1037.1 270.6 1037.5 270.7 1038.6 270.3C1039.9 269.8 1040.1 270 1039.5 271C1038.9 272 1039.1 272.2 1040.4 271.7C1041.5 271.2 1041.9 271.4 1041.4 272.2C1040.9 273 1041.2 273.1 1042.4 272.7C1043.5 272.3 1043.9 272.4 1043.4 273.1C1043 273.9 1043.5 274 1045.1 273.5C1047 273 1047.2 273.1 1046 274C1044.8 274.9 1045 275 1047 274.5C1049 274 1049.2 274.1 1048 275C1046.7 275.9 1046.8 276.1 1048.5 275.9C1052 275.6 1053.1 276 1052.5 277.1C1052.1 277.7 1052.4 278.1 1053.1 277.9C1055.7 277.6 1057 278 1056.7 279.1C1056.6 279.7 1057.1 280.5 1057.9 280.8C1058.8 281.1 1059 280.8 1058.5 280C1058 279.1 1058.1 278.9 1058.9 279.4C1059.5 279.8 1059.7 280.6 1059.4 281.2C1058.9 282 1059.3 282.1 1060.4 281.7C1061.5 281.2 1061.9 281.4 1061.4 282.2C1060.9 283 1061.2 283.1 1062.4 282.7C1063.5 282.2 1063.9 282.4 1063.4 283.2C1062.9 284 1063.2 284.1 1064.4 283.7C1065.3 283.3 1065.9 283.4 1065.6 283.9C1065.3 284.4 1065.8 284.7 1066.8 284.6C1067.8 284.6 1068.4 285.1 1068.2 285.9C1068 286.7 1068.5 287 1069.4 286.7C1070.3 286.3 1070.9 286.6 1070.7 287.2C1070.6 287.8 1071 288.4 1071.6 288.7C1072.2 288.9 1072.7 288.4 1072.7 287.5C1072.7 285.1 1050.5 273.3 1032 266C1018.4 260.5 999.2 254.9 980 250.6C977.6 250.1 977.4 249.5 976.2 240.5C972.8 215.4 962.6 184.5 949.4 159C920.9 104.3 874.2 59.0004 817.5 31.0004C787.9 16.4004 760.7 7.80036 728.5 3.00036C716.2 1.10036 708.4 0.700362 684.5 0.500362C668.6 0.300362 651.9 0.500362 647.5 1.00036ZM889.1 81.7004C890.4 83.3004 890.3 83.4004 888.8 82.1004C887.8 81.4004 887 80.6004 887 80.4004C887 79.6004 887.8 80.1004 889.1 81.7004ZM471 84.3004C471 84.5004 469.3 86.2004 467.3 88.1004L463.5 91.5004L466.9 87.7004C470.2 84.3004 471 83.5004 471 84.3004ZM463 92.3004C463 92.5004 461.8 93.7004 460.3 95.1004L457.5 97.5004L459.9 94.7004C462.2 92.2004 463 91.5004 463 92.3004Z" fill="white"/>
<mask id="path-2-inside-1" fill="white">
<path d="M652.5 4.10004C632.6 6.00004 610.1 10.4 591.8 16.1C579.9 19.8 558.3 28.3 549.3 32.8C545.9 34.6 542.5 35.8 541.8 35.7C541.1 35.5 540.9 35.5 541.3 35.8C542.8 36.6 532.2 42 530.3 41.4C529.1 41 528.9 41.1 529.8 41.7C530.7 42.4 529.9 43.2 527.1 44.8C524.9 46 519.1 49.7 514.1 53C504.7 59.2 503.4 59.8 504.6 57.8C505 57.1 504.9 57 504.1 57.4C503.5 57.8 503.2 58.5 503.5 59C503.8 59.4 502.4 61 500.6 62.4C496.9 65.2 495.4 65.7 496.6 63.8C497 63.1 496.9 63 496.1 63.4C495.5 63.8 495.2 64.5 495.5 65C495.8 65.4 494 67.4 491.6 69.4C487.1 73.1 485.3 73.9 486.6 71.8C487.1 71.1 486.9 71 486.1 71.4C485.4 71.9 485.1 72.5 485.4 72.8C486.1 73.5 481 79 479.8 79C479.3 79 479.2 78.5 479.6 77.8C480.1 77.1 479.9 77 479.1 77.4C478.4 77.9 478.1 78.5 478.5 78.8C479.3 79.6 455.9 103 454.9 102.4C454.5 102.2 453.8 102.5 453.4 103.1C453 103.9 453.1 104 453.8 103.6C454.5 103.2 455 103.3 455 103.8C455 104.9 449.4 110.3 448.5 110C448.1 109.9 447.5 110.2 447.2 110.6C446.8 111 447.1 111 447.8 110.6C450 109.3 449 111.1 443.7 117.8C440.7 121.5 437.3 126 436.1 127.8C434.9 129.6 433.5 130.8 433 130.5C432.6 130.2 432.3 130.8 432.4 131.8C432.4 132.7 432 133.4 431.4 133.3C430.7 133.2 430.3 133.8 430.4 134.8C430.4 135.7 429.9 136.4 429.2 136.2C428.4 136.1 428.1 136.4 428.5 137C428.8 137.5 426.8 141.7 424.1 146.3C417.6 157.1 407 179.2 403.4 189.7C400.6 197.8 400.5 197.8 398 196.5C394.6 194.8 384.6 191.5 378 189.8C374.5 189 366.9 188.5 357 188.6C343.8 188.7 340.1 189.1 331.9 191.3C298.6 200.1 270.9 223 259 251.7C255.1 261 251 276.9 251 282.7C251 287.6 250.9 287.6 241.9 286C221.1 282.4 189.2 282.8 163 287.1C98.3995 297.8 45.9995 331.3 18.3995 379.7C-9.00046 427.8 1.39954 491.1 43.3995 532.4C82.7995 571.1 134.1 591.9 197 594.6C232.7 596.2 276.4 588.3 308.3 574.4C312.6 572.5 316.4 571 316.8 571C317.2 571 318.4 573.1 319.4 575.8C322.4 583.2 330.6 597.3 336.7 605.2C359 634.5 392.7 655.3 431.2 663.6C443.2 666.3 476 666.3 488 663.6C516.4 657.5 539.5 645.5 563.3 624.7L570.1 618.7L576 621.4C590.1 627.7 609.1 633.1 628 636.1C638.9 637.9 674.8 637.9 685 636.2C715.9 630.9 740.5 621.8 762.6 607.5L770.6 602.3L777.4 608.7C818.9 648.1 884.1 671.1 947 668.7C1001.1 666.5 1047.5 650.3 1088.5 619.1C1098.5 611.5 1119.9 590 1125.1 582.4C1130.1 574.9 1135.1 570.1 1137.8 569.9C1138.7 569.8 1144.5 569.9 1150.5 570C1174.6 570.4 1197.5 563.3 1219.5 548.8C1229.9 542 1248.2 523.7 1254.9 513.5C1272 487.4 1277.9 461 1273.5 430.2C1269.8 404 1257.7 381.3 1237.1 361.8C1215 340.8 1190.4 329.3 1160.4 325.9C1149.8 324.8 1141.2 325.2 1128.3 327.6C1120.8 329.1 1119.9 329 1116.6 327.5C1114.6 326.5 1110 322.1 1106 317.4C1102.1 312.8 1098.5 309 1098.1 309C1097.7 309 1093.5 306 1088.9 302.3C1084.3 298.7 1077.2 293.5 1073.2 290.9C1069.1 288.3 1066.2 286 1066.7 285.8C1067.1 285.5 1067 285.5 1066.3 285.6C1064.7 286 1053.9 280 1054.4 279.1C1054.7 278.7 1053.9 278.4 1052.7 278.4C1051.5 278.5 1050.6 278 1050.7 277.5C1050.8 276.9 1049.9 276.4 1048.7 276.4C1047.5 276.3 1042.3 274.4 1037.2 272.1C1025 266.7 1005 260.2 987.8 256.1L974.2 252.8L973.5 246.6C971.6 229.3 965.7 206.9 958.4 188.1C955.8 181.7 953.7 175.5 953.6 174.3C953.6 173.2 953.2 172.4 952.9 172.6C951.9 173.2 950.9 170 951.7 168.8C952 168.2 951.8 168 951.3 168.3C949.9 169.2 948.9 166.6 949.6 164.2C950 163 949.9 162.9 949.3 163.8C948.2 165.3 944.6 158.5 945.6 156.8C946 156.1 945.8 156 945.2 156.4C943.7 157.3 941.9 153.6 942.6 151.3C943 150.1 942.9 149.9 942.3 150.8C941.1 152.3 936.5 144.6 937.6 142.8C938 142.2 937.9 142 937.3 142.3C936 143.1 926.7 129.3 927.6 127.8C928 127.2 927.9 127 927.3 127.3C926.7 127.7 923.5 124.3 920.1 119.9C913.8 111.7 912.7 109.8 915.8 112.1C917.3 113.4 917.4 113.3 916.1 111.8C915.4 110.8 914.4 110.2 914 110.5C913.1 111.1 908.8 106.6 909.2 105.4C909.4 104.9 909.2 104.5 908.8 104.5C907.3 104.5 895 91.5 895.4 90.4C896 88.9 892.6 85.7 891.6 86.7C890.8 87.5 879.9 77 880.6 75.9C880.8 75.5 880.5 74.8 879.9 74.4C879.1 74 879 74.1 879.4 74.8C880.7 76.9 878.4 76.1 876.2 73.7C875 72.4 874.3 71 874.7 70.5C875.2 70.1 874.9 70 874.2 70.4C872.8 71.2 863.7 64.3 864.5 63C864.8 62.5 864.5 61.8 863.9 61.4C863.1 61 863 61.1 863.4 61.8C863.8 62.5 863.7 63 863.2 63C862.1 63 860.2 60.9 860.2 59.7C860.2 59.2 859.8 58.5 859.4 58.2C859 57.8 859 58.1 859.4 58.7C860.6 60.9 858.9 60.1 852.6 55.7C844.2 49.7 827.8 39.9 818.6 35.3C813.4 32.8 811.4 31.3 812.3 30.7C813.1 30.1 812.9 30 811.7 30.4C810.8 30.7 806 29.2 801 27C785.3 20.1 763.5 13.2 745.8 9.60004C718.1 3.90004 679 1.60004 652.5 4.10004ZM894.1 88.7C895.4 90.3 895.3 90.4 893.8 89.1C892.8 88.4 892 87.6 892 87.4C892 86.6 892.8 87.1 894.1 88.7Z"/>
</mask>
<path d="M652.5 4.10004C632.6 6.00004 610.1 10.4 591.8 16.1C579.9 19.8 558.3 28.3 549.3 32.8C545.9 34.6 542.5 35.8 541.8 35.7C541.1 35.5 540.9 35.5 541.3 35.8C542.8 36.6 532.2 42 530.3 41.4C529.1 41 528.9 41.1 529.8 41.7C530.7 42.4 529.9 43.2 527.1 44.8C524.9 46 519.1 49.7 514.1 53C504.7 59.2 503.4 59.8 504.6 57.8C505 57.1 504.9 57 504.1 57.4C503.5 57.8 503.2 58.5 503.5 59C503.8 59.4 502.4 61 500.6 62.4C496.9 65.2 495.4 65.7 496.6 63.8C497 63.1 496.9 63 496.1 63.4C495.5 63.8 495.2 64.5 495.5 65C495.8 65.4 494 67.4 491.6 69.4C487.1 73.1 485.3 73.9 486.6 71.8C487.1 71.1 486.9 71 486.1 71.4C485.4 71.9 485.1 72.5 485.4 72.8C486.1 73.5 481 79 479.8 79C479.3 79 479.2 78.5 479.6 77.8C480.1 77.1 479.9 77 479.1 77.4C478.4 77.9 478.1 78.5 478.5 78.8C479.3 79.6 455.9 103 454.9 102.4C454.5 102.2 453.8 102.5 453.4 103.1C453 103.9 453.1 104 453.8 103.6C454.5 103.2 455 103.3 455 103.8C455 104.9 449.4 110.3 448.5 110C448.1 109.9 447.5 110.2 447.2 110.6C446.8 111 447.1 111 447.8 110.6C450 109.3 449 111.1 443.7 117.8C440.7 121.5 437.3 126 436.1 127.8C434.9 129.6 433.5 130.8 433 130.5C432.6 130.2 432.3 130.8 432.4 131.8C432.4 132.7 432 133.4 431.4 133.3C430.7 133.2 430.3 133.8 430.4 134.8C430.4 135.7 429.9 136.4 429.2 136.2C428.4 136.1 428.1 136.4 428.5 137C428.8 137.5 426.8 141.7 424.1 146.3C417.6 157.1 407 179.2 403.4 189.7C400.6 197.8 400.5 197.8 398 196.5C394.6 194.8 384.6 191.5 378 189.8C374.5 189 366.9 188.5 357 188.6C343.8 188.7 340.1 189.1 331.9 191.3C298.6 200.1 270.9 223 259 251.7C255.1 261 251 276.9 251 282.7C251 287.6 250.9 287.6 241.9 286C221.1 282.4 189.2 282.8 163 287.1C98.3995 297.8 45.9995 331.3 18.3995 379.7C-9.00046 427.8 1.39954 491.1 43.3995 532.4C82.7995 571.1 134.1 591.9 197 594.6C232.7 596.2 276.4 588.3 308.3 574.4C312.6 572.5 316.4 571 316.8 571C317.2 571 318.4 573.1 319.4 575.8C322.4 583.2 330.6 597.3 336.7 605.2C359 634.5 392.7 655.3 431.2 663.6C443.2 666.3 476 666.3 488 663.6C516.4 657.5 539.5 645.5 563.3 624.7L570.1 618.7L576 621.4C590.1 627.7 609.1 633.1 628 636.1C638.9 637.9 674.8 637.9 685 636.2C715.9 630.9 740.5 621.8 762.6 607.5L770.6 602.3L777.4 608.7C818.9 648.1 884.1 671.1 947 668.7C1001.1 666.5 1047.5 650.3 1088.5 619.1C1098.5 611.5 1119.9 590 1125.1 582.4C1130.1 574.9 1135.1 570.1 1137.8 569.9C1138.7 569.8 1144.5 569.9 1150.5 570C1174.6 570.4 1197.5 563.3 1219.5 548.8C1229.9 542 1248.2 523.7 1254.9 513.5C1272 487.4 1277.9 461 1273.5 430.2C1269.8 404 1257.7 381.3 1237.1 361.8C1215 340.8 1190.4 329.3 1160.4 325.9C1149.8 324.8 1141.2 325.2 1128.3 327.6C1120.8 329.1 1119.9 329 1116.6 327.5C1114.6 326.5 1110 322.1 1106 317.4C1102.1 312.8 1098.5 309 1098.1 309C1097.7 309 1093.5 306 1088.9 302.3C1084.3 298.7 1077.2 293.5 1073.2 290.9C1069.1 288.3 1066.2 286 1066.7 285.8C1067.1 285.5 1067 285.5 1066.3 285.6C1064.7 286 1053.9 280 1054.4 279.1C1054.7 278.7 1053.9 278.4 1052.7 278.4C1051.5 278.5 1050.6 278 1050.7 277.5C1050.8 276.9 1049.9 276.4 1048.7 276.4C1047.5 276.3 1042.3 274.4 1037.2 272.1C1025 266.7 1005 260.2 987.8 256.1L974.2 252.8L973.5 246.6C971.6 229.3 965.7 206.9 958.4 188.1C955.8 181.7 953.7 175.5 953.6 174.3C953.6 173.2 953.2 172.4 952.9 172.6C951.9 173.2 950.9 170 951.7 168.8C952 168.2 951.8 168 951.3 168.3C949.9 169.2 948.9 166.6 949.6 164.2C950 163 949.9 162.9 949.3 163.8C948.2 165.3 944.6 158.5 945.6 156.8C946 156.1 945.8 156 945.2 156.4C943.7 157.3 941.9 153.6 942.6 151.3C943 150.1 942.9 149.9 942.3 150.8C941.1 152.3 936.5 144.6 937.6 142.8C938 142.2 937.9 142 937.3 142.3C936 143.1 926.7 129.3 927.6 127.8C928 127.2 927.9 127 927.3 127.3C926.7 127.7 923.5 124.3 920.1 119.9C913.8 111.7 912.7 109.8 915.8 112.1C917.3 113.4 917.4 113.3 916.1 111.8C915.4 110.8 914.4 110.2 914 110.5C913.1 111.1 908.8 106.6 909.2 105.4C909.4 104.9 909.2 104.5 908.8 104.5C907.3 104.5 895 91.5 895.4 90.4C896 88.9 892.6 85.7 891.6 86.7C890.8 87.5 879.9 77 880.6 75.9C880.8 75.5 880.5 74.8 879.9 74.4C879.1 74 879 74.1 879.4 74.8C880.7 76.9 878.4 76.1 876.2 73.7C875 72.4 874.3 71 874.7 70.5C875.2 70.1 874.9 70 874.2 70.4C872.8 71.2 863.7 64.3 864.5 63C864.8 62.5 864.5 61.8 863.9 61.4C863.1 61 863 61.1 863.4 61.8C863.8 62.5 863.7 63 863.2 63C862.1 63 860.2 60.9 860.2 59.7C860.2 59.2 859.8 58.5 859.4 58.2C859 57.8 859 58.1 859.4 58.7C860.6 60.9 858.9 60.1 852.6 55.7C844.2 49.7 827.8 39.9 818.6 35.3C813.4 32.8 811.4 31.3 812.3 30.7C813.1 30.1 812.9 30 811.7 30.4C810.8 30.7 806 29.2 801 27C785.3 20.1 763.5 13.2 745.8 9.60004C718.1 3.90004 679 1.60004 652.5 4.10004ZM894.1 88.7C895.4 90.3 895.3 90.4 893.8 89.1C892.8 88.4 892 87.6 892 87.4C892 86.6 892.8 87.1 894.1 88.7Z" fill="white" stroke="#B7BFC0" stroke-width="14" mask="url(#path-2-inside-1)"/>
<path d="M412.4 160.1C408.7 167.5 404.1 177.8 402.1 183.1L398.4 192.8L395 191.3C378.5 184.3 350.9 182.8 331 187.9C316.9 191.5 296.2 200.8 297.5 203C297.8 203.5 297.5 204.2 296.9 204.6C296.1 205 296 204.9 296.4 204.2C297.4 202.6 296.4 202.7 293.5 204.6C292.1 205.5 291.2 206.6 291.5 207C291.8 207.5 291.5 208.2 290.9 208.6C290.1 209 290 208.9 290.4 208.2C291.9 205.7 289.2 207.3 283.7 212.1C280.6 214.9 278.3 217.6 278.6 218.1C278.9 218.6 278.6 218.9 277.8 218.8C277.1 218.6 276.6 219.1 276.8 219.8C276.9 220.6 276.6 220.9 276.1 220.6C275.3 220.1 267 228.9 267 230.3C267 232.1 270.7 229.1 279.5 220.4C285 214.9 291.8 208.9 294.7 207C297.6 205.2 299.7 203.4 299.5 203C299.2 202.6 299.8 202.3 300.8 202.4C301.7 202.4 302.4 201.9 302.2 201.2C302.1 200.5 302.5 200 303.2 200.1C305.8 200.4 307.1 200 306.5 198.9C306.1 198.3 306.4 197.9 307.1 198.1C309.8 198.4 311.1 198 310.5 196.9C310.1 196.3 310.4 195.9 311.1 196.1C314.3 196.5 316.1 196 315.4 194.8C314.9 194 315.2 193.9 316.4 194.3C317.5 194.7 317.9 194.6 317.4 193.9C317 193.1 317.5 193 319 193.5C320.5 194 321 193.9 320.6 193.1C320.2 192.4 320.6 192.1 321.7 192.2C325.2 192.5 327.1 192 326.5 190.9C326.1 190.3 326.7 190 328.2 190.1C332.7 190.5 335.1 190 334.4 188.9C334 188.1 334.8 188 337.1 188.5C339.7 189 340.1 188.9 339 188C337.9 187.2 338.6 187.1 341.9 187.6C344.9 188.1 346.1 188 345.7 187.3C345.2 186.6 349.1 186.2 357.5 186.2C365.6 186.3 369.7 186.6 369.3 187.3C368.9 188 370.2 188.1 372.9 187.6C375.7 187.2 376.9 187.3 376.5 188C376.1 188.6 377.1 188.7 379.1 188.3C381.6 187.8 382.1 188 381.5 189C380.9 190 381.3 190.1 383.4 189.6C385.4 189.1 386 189.3 385.5 190.1C385 190.9 385.4 191 387 190.5C388.6 190 389 190.1 388.5 191C388 191.9 388.4 192 390 191.5C391.4 191 392 191.2 391.6 191.8C391.3 192.4 392.4 193.3 394 193.9C396.4 194.7 396.9 194.6 396.5 193.7C396.1 193 396.6 193.4 397.5 194.5C398.9 196.2 399.2 196.3 400 195C400.6 194.2 400.8 192.9 400.5 192.2C400.2 191.5 400.5 191.2 401 191.5C402 192.1 402.5 190.2 402.2 186.7C402.1 185.7 402.4 185.1 402.9 185.4C404.1 186.2 405.1 183.4 404.3 181.3C403.9 180.3 404.1 179.9 404.7 180.3C406.1 181.2 407.1 178.5 406.3 176.2C406 175.3 406.1 174.9 406.5 175.3C407.8 176.4 416.1 159.4 415.3 157.3C414.9 156.2 415 155.9 415.8 156.4C417.3 157.3 421.1 149.8 420 148C419.4 147.1 417.1 150.8 412.4 160.1ZM417.3 154.5C417 155.4 416.5 155.9 416.3 155.6C416 155.3 416.1 154.7 416.5 154.1C417.4 152.5 418 152.8 417.3 154.5ZM413.5 161.9C411.4 166.2 410.6 165.8 412.7 161.5C413.6 159.6 414.5 158.2 414.8 158.4C415 158.6 414.4 160.2 413.5 161.9ZM410.1 168.7C408.9 170.7 408.7 170.1 409.6 167.5C410 166.6 410.5 166.1 410.7 166.4C411 166.6 410.7 167.7 410.1 168.7ZM290 209.3C290 209.5 288.5 210.6 286.8 211.9L283.5 214.1L286.3 211.6C288.9 209.2 290 208.5 290 209.3ZM276 222.3C276 222.5 274.3 224.2 272.3 226.1L268.5 229.5L271.9 225.7C275.2 222.3 276 221.5 276 222.3Z" fill="white"/>
<path d="M265.5 231.8C264.4 232.9 265.1 233.8 266.7 233.6C268.9 233.3 269.6 231.3 267.5 231.3C266.7 231.3 265.8 231.6 265.5 231.8Z" fill="white"/>
<path d="M262.6 236.4C256.9 245.1 251.1 260.9 248.5 274.5C247.6 278.8 246.8 282.6 246.5 282.8C246.3 283 243.3 282.7 239.8 282.1C229.7 280.3 199 279.6 183.8 280.9C121.2 286.2 66.1998 312.4 32.5998 353C16.8998 371.9 7.39977 390.2 2.19977 411.3C-0.300227 421.7 -0.200227 454.4 2.29977 465C5.39977 477.9 7.89977 485.2 13.0998 495.9C22.5998 516 32.4998 528.4 51.7998 545C62.6998 554.3 67.0998 557.3 63.8998 553.2C62.5998 551.7 62.6998 551.6 64.1998 552.9C65.1998 553.6 65.7998 554.6 65.4998 555C64.6998 556.3 83.2998 567.8 97.2998 574.5C118.7 584.9 142.2 591.8 170 596.2C181.6 598 229.4 598 241.5 596.2C264.6 592.7 286 587.2 304.7 579.8C313.3 576.4 315.5 575.9 315.8 577C317.1 580.8 325.6 596 330.3 602.8C336.6 612 350.1 626.4 359 633.5C380.1 650.3 403.9 661.4 431 667.1C445.9 670.3 473.9 670.3 488.7 667.2C515.6 661.4 539.3 649.7 561.3 631.2L570.9 623.1L580.4 627C604.5 636.8 627.4 641.1 656.6 641.1C673.4 641.1 681.9 640.4 695 638C719.1 633.5 744.3 623.7 763.2 611.4L770.3 606.9L772.9 609.5C774.4 610.9 776 611.7 776.4 611.3C776.8 610.8 777 611.1 776.8 611.7C776.6 612.4 779.7 615.7 783.5 619C790.4 624.9 793.6 626.7 790.9 623.2C789.6 621.7 789.7 621.6 791.2 622.9C792.2 623.6 792.7 624.6 792.4 625.1C791.7 626.3 811.3 639 824 645.4C846.7 656.9 868.8 664.1 897 669.2C908 671.2 912.9 671.4 938.5 671.5C968.1 671.5 970.7 671.3 992.5 666.8C1026.2 660 1059.4 645.3 1086.5 625.1C1097.4 617 1120.3 595.3 1119.4 593.8C1119.1 593.3 1119.4 593.1 1120.2 593.2C1120.9 593.4 1121.4 592.9 1121.2 592.2C1121.1 591.4 1121.4 591.1 1121.9 591.4C1122.4 591.8 1124.6 589.5 1126.7 586.4C1128.8 583.2 1132.1 578.9 1134.1 576.8L1137.8 573L1146.1 573.6C1161.3 574.7 1180.3 571.5 1196.8 565C1206.3 561.2 1221.5 552.7 1221.5 551.2C1221.5 550.6 1222.2 549.5 1223 548.8C1224.2 547.7 1224.2 547.7 1223.1 549.3C1218.9 554.8 1232 544.8 1241.5 535.3C1250.1 526.7 1260.3 513.1 1259.6 511.3C1259.3 510.5 1259.4 510.1 1259.9 510.5C1262.1 511.8 1271.3 491.5 1275.3 476.7C1277.2 469.5 1277.5 466 1277.4 448C1277.4 425.2 1276.1 417.5 1269.5 401.8C1252.7 362.1 1215.7 332.4 1172.5 323.9C1163.3 322.1 1138.9 322.1 1127.6 323.9L1118.8 325.4L1108.6 314.7C1102.9 308.8 1097.8 304 1097.1 304C1096.4 304 1096.2 304.5 1096.6 305.2C1097 305.9 1096.9 306 1096.1 305.6C1095.5 305.2 1095.2 304.5 1095.5 304C1095.8 303.6 1093.1 300.9 1089.6 298.1C1083.1 292.9 1080.7 291.7 1083.1 294.7C1084.4 296.3 1084.3 296.4 1082.8 295.1C1081.8 294.4 1081.2 293.4 1081.5 293C1081.9 292.3 1074.8 287 1073.5 287C1071.7 287 1074.3 290 1079 293.4C1082 295.6 1087.1 299.5 1090.3 302.1C1094.1 305.3 1096.6 306.7 1097.7 306.3C1098.6 305.9 1099.1 306.1 1098.7 306.6C1098.4 307.1 1102.3 312 1107.4 317.3C1114.7 325.1 1117 327 1118.5 326.4C1119.8 325.9 1120.1 326 1119.6 326.8C1119.1 327.6 1119.8 328 1121.5 328C1123.2 328 1123.9 327.6 1123.4 326.9C1123 326.1 1123.5 326 1125 326.5C1126.6 327 1127 326.9 1126.5 326C1126 325.2 1126.8 325.1 1129.5 325.6C1132.4 326.1 1133.1 326 1132.5 325.1C1132 324.1 1133.2 324 1137.6 324.4C1141.6 324.8 1142.9 324.7 1141.5 324.1C1140.1 323.4 1142.7 323.1 1150 323.1C1157.2 323.1 1159.9 323.4 1158.5 324.1C1157.1 324.7 1158.2 324.8 1161.8 324.4C1165.5 324 1167 324.2 1167 325C1167 325.9 1168.1 326 1170.6 325.5C1173.1 325.1 1174 325.2 1173.5 326C1173 326.7 1173.7 326.9 1175.6 326.4C1177.7 325.9 1178.1 326 1177.5 327C1176.9 328 1177.4 328.2 1179.3 327.8C1180.9 327.5 1181.7 327.7 1181.3 328.3C1181 328.8 1181.6 328.9 1182.9 328.5C1184.2 328.1 1185 328.3 1185 329C1185 329.7 1185.8 329.9 1187.1 329.5C1188.7 329 1189 329.1 1188.5 330C1188 330.9 1188.4 331 1190 330.5C1191.4 330.1 1192 330.2 1191.6 330.8C1190.8 332.1 1193.5 333.1 1195.7 332.3C1196.7 331.9 1197.1 332.1 1196.7 332.7C1195.9 333.9 1201.4 336.5 1204.2 336.3C1205.2 336.2 1205.8 336.5 1205.5 337.1C1204.9 338 1206.3 338.4 1208.9 338.1C1209.6 337.9 1209.9 338.3 1209.6 338.9C1209.2 339.5 1210.4 340.7 1212.2 341.6C1214 342.5 1218.1 345 1221.3 347.2C1224.4 349.3 1227 350.9 1227 350.6C1227 350.4 1231.9 355 1237.8 360.8C1249.6 372.5 1256.3 381.2 1262.6 393.2C1264.8 397.5 1267 400.7 1267.5 400.3C1267.9 399.8 1268 400.3 1267.7 401.3C1267.2 402.5 1267.4 402.9 1268.1 402.4C1268.9 402 1269 402.5 1268.5 404C1268 405.5 1268.1 406 1268.9 405.6C1269.6 405.2 1269.9 405.6 1269.8 406.7C1269.5 410.3 1270 412.1 1271.1 411.4C1271.9 411 1272 411.5 1271.5 413C1271 414.6 1271.1 415 1272 414.5C1272.9 414 1273 414.3 1272.5 415.9C1272.1 417.2 1272.3 418 1273 418C1273.6 418 1273.8 419.1 1273.4 420.7C1273 422.9 1273.1 423.2 1274 422C1274.8 420.8 1274.9 421.4 1274.4 424.3C1274 426.8 1274.1 428 1274.9 428C1275.8 428 1275.9 429.4 1275.5 432.8C1275.1 435.4 1275.2 437 1275.7 436.3C1276.1 435.7 1276.5 441.4 1276.5 449C1276.5 456.6 1276.1 462.6 1275.7 462.3C1275.2 462 1275.2 463.5 1275.6 465.5C1276.1 468.5 1276 469.1 1275 468.5C1274 467.9 1273.9 468.5 1274.4 471.5C1274.9 474.2 1274.8 475 1274 474.5C1273.1 474 1273 474.4 1273.5 475.9C1273.9 477.2 1273.7 478 1273 478C1272.3 478 1272.1 478.8 1272.5 480.1C1273 481.7 1272.9 482 1272 481.5C1271.1 481 1271 481.4 1271.5 483C1272 484.7 1271.9 485.1 1270.9 484.5C1270 483.9 1269.8 484.3 1270.2 485.8C1270.6 487.2 1270.4 487.8 1269.8 487.4C1269.2 487 1269 487.6 1269.5 489C1269.9 490.4 1269.8 491 1269.2 490.6C1267.9 489.8 1266.9 492.5 1267.7 494.7C1268.1 495.8 1268 496.1 1267.2 495.6C1266.5 495.2 1266 495.3 1266 495.7C1266 496.2 1264 500.1 1261.5 504.4C1259.1 508.7 1257.3 512.8 1257.7 513.4C1258 514 1258 514.2 1257.5 513.8C1257.1 513.4 1254.5 516 1251.7 519.7C1242.8 531.4 1224.9 547.8 1215.2 552.9C1214 553.6 1213.2 554.6 1213.6 555.1C1213.9 555.7 1213.6 556 1212.8 555.8C1210.7 555.3 1201 560.2 1201.7 561.3C1202.1 561.9 1201.7 562.1 1200.6 561.7C1199.5 561.2 1199.1 561.4 1199.6 562.2C1200.1 563 1199.8 563.1 1198.7 562.7C1196.7 561.9 1193.8 562.9 1194.5 564C1194.8 564.5 1194 564.6 1192.8 564.2C1191.4 563.9 1190.9 564 1191.4 564.8C1191.9 565.6 1191.4 565.9 1190.3 565.8C1186.7 565.5 1184.9 566 1185.6 567.1C1186 567.9 1185.5 568 1184 567.5C1182.4 567 1182 567.1 1182.5 567.9C1183 568.7 1182.4 568.9 1180.6 568.4C1178.9 568 1178 568.2 1178 568.9C1178 569.6 1177 569.8 1175.4 569.4C1173.6 568.9 1172.9 569.1 1173.4 569.8C1173.8 570.5 1172.9 570.7 1170.5 570.3C1168.6 570 1167 570.1 1167 570.6C1167 571.1 1160 571.4 1151.5 571.4C1141.2 571.3 1136.3 571.6 1136.7 572.3C1137 572.9 1136.8 573 1136.1 572.6C1134.5 571.5 1132.5 573.4 1127.7 580.5C1116.3 597.4 1090.5 620.6 1067.4 634.8C1062.3 637.9 1058.4 640.8 1058.7 641.3C1059 641.8 1058.6 642 1057.8 641.8C1055.9 641.4 1045.9 646.1 1046.6 647.1C1046.8 647.5 1046.2 647.8 1045.2 647.7C1042.4 647.5 1036.9 650.1 1037.7 651.3C1038.1 651.9 1037.7 652.1 1036.7 651.7C1034.5 650.9 1031.8 651.9 1032.7 653.3C1033.1 653.9 1032.7 654.1 1031.7 653.7C1029.5 652.9 1026.8 653.9 1027.6 655.2C1028 655.8 1027.4 655.9 1026 655.5C1024.6 655 1024 655.2 1024.4 655.8C1024.8 656.4 1024.2 656.6 1022.8 656.2C1021.3 655.8 1020.9 656 1021.5 656.9C1022.1 657.9 1021.7 658 1020 657.5C1018.6 657 1018 657.2 1018.4 657.8C1018.8 658.4 1018.2 658.6 1016.8 658.2C1015.3 657.8 1014.9 658 1015.5 658.9C1016.1 659.9 1015.7 660 1014 659.5C1012.4 659 1012 659.1 1012.5 659.9C1013 660.7 1012.4 660.9 1010.4 660.4C1008.4 659.9 1007.9 660 1008.5 661C1009 661.9 1008.7 662 1007 661.5C1005.4 661 1005 661.1 1005.5 661.9C1006 662.7 1005.4 662.9 1003.6 662.4C1001.9 662 1001 662.2 1001 663C1001 663.7 1000.2 663.9 998.9 663.5C997.5 663 997 663.2 997.4 663.9C997.9 664.6 997.1 664.8 994.9 664.3C992.5 663.8 991.9 664 992.5 665C993.1 665.9 992.5 666 990 665.5C987.8 665 987 665.1 987.4 665.9C987.9 666.6 987.1 666.8 985 666.4C983 665.9 982 666.1 982 667C982 667.9 980.9 668 978.3 667.6C975.5 667.1 974.9 667.2 976 668C977.1 668.8 976.1 668.9 972.3 668.4C968.5 667.9 967 668.1 967 668.9C967 669.8 965.4 670 961.3 669.6C958.1 669.2 956.3 669.3 957.2 669.7C958.2 670.2 950 670.5 939.1 670.5C928.1 670.5 919.7 670.1 920.3 669.7C921 669.3 918.9 669.2 915.8 669.6C911.5 670.1 910 669.9 910 669C910 668.1 908.7 668 905.3 668.4C901.6 668.9 900.9 668.8 902 668C903.2 667.1 902.6 667 899.8 667.5C897.2 667.9 896 667.7 896 666.9C896 666.1 894.8 666 892.3 666.4C889.4 666.9 888.9 666.8 890 666C891.2 665.1 890.7 665 888.3 665.5C886 666 885 665.8 885 665C885 664.2 884.1 664 882.4 664.4C880.7 664.9 880.1 664.7 880.5 664C881 663.3 880.3 663.1 878.4 663.6C876.3 664.1 875.9 664 876.5 663C877.1 662 876.7 661.9 874.6 662.4C872.6 662.9 872 662.7 872.5 661.9C873 661.1 872.6 661 871.1 661.5C869.8 661.9 869 661.7 869 661C869 660.3 868.2 660 867 660.3C865.8 660.6 865.2 660.4 865.6 659.8C866 659.2 865.4 659 864 659.5C862.5 660 862 659.9 862.4 659.1C863.1 658 861.3 657.5 857.7 657.8C856.7 657.9 856.2 657.5 856.5 657C857.1 656 855.2 655.5 851.7 655.8C850.7 655.9 850.2 655.5 850.5 655C851.1 654 849 653.6 846.1 653.9C845.4 654.1 845.1 653.7 845.5 653.1C846.1 652.1 844.1 651.5 841.1 651.9C840.4 652.1 840.1 651.7 840.5 651C841 650.1 840.6 650 839 650.5C837.5 651 837 650.9 837.4 650.1C837.9 649.4 837.5 649.3 836.4 649.7C835.2 650.1 834.9 650 835.4 649.2C836.1 648 834.9 647.6 832.1 647.9C831.4 648.1 831 647.7 831.4 647.2C832 646.1 818.3 639.4 816.3 639.8C815.5 640 815.1 639.7 815.4 639.2C816.1 638 809.2 633.6 806.8 633.8C805.8 633.8 805.1 633.3 805.3 632.7C805.4 632 804.7 631.6 803.7 631.8C802.7 632 802.1 631.5 802.2 630.8C802.4 630 801.8 629.6 800.7 629.8C799.7 630 799.1 629.5 799.2 628.8C799.4 628 798.8 627.6 797.6 627.8C796.6 628 796.1 627.7 796.4 627.1C796.8 626.6 794.5 624.2 791.3 621.9C788.1 619.5 783.2 615.6 780.5 613.1C777.7 610.5 774.3 607.4 772.8 606.2L770.2 603.8L763.6 608.3C760 610.7 757.3 613 757.8 613.5C758.2 613.9 757.8 614.1 756.9 613.7C755 613.1 749.6 616.3 750.7 617.4C751.2 617.8 750.8 618.1 750 618C747.3 617.6 745.9 618 746.5 618.9C746.8 619.5 746.2 619.8 745.1 619.7C742.7 619.6 734.9 623 735.5 624C735.8 624.5 735 624.6 733.8 624.2C732.3 623.8 731.9 624 732.4 624.9C732.9 625.7 732.7 626.1 731.9 625.9C728.7 625.5 726.9 626 727.6 627.2C728.1 628 727.8 628.1 726.6 627.7C725.5 627.3 725.1 627.4 725.6 628.1C726 628.9 725.5 629 724.1 628.5C722.9 628.1 722 628.3 722 628.9C722 629.5 721.2 629.9 720.3 629.8C716.7 629.5 714.9 630 715.6 631.1C716 631.9 715.5 632 714 631.5C712.4 631 712 631.1 712.5 631.9C713 632.7 712.4 632.9 710.4 632.4C708.3 631.9 707.9 632 708.5 633C709.1 634 708.7 634.1 706.6 633.6C704.7 633.1 704 633.3 704.5 634C705 634.7 704.3 634.9 702.4 634.4C700.4 633.9 699.9 634 700.5 635C701.1 635.9 700.5 636 698 635.5C695.6 635 694.9 635.1 695.5 636C696 636.8 695.2 636.9 692.5 636.4C689.6 635.9 688.9 636 689.5 637C690.1 637.9 689.2 638.1 685.9 637.6C682.7 637.1 681.9 637.2 683 637.9C684.1 638.7 682.9 638.8 678.6 638.4C674.8 637.9 672.9 638 673.3 638.7C673.7 639.3 668.1 639.7 657.5 639.7C647.5 639.7 641 639.3 641 638.7C641 638.1 638.6 637.9 635 638.3C631.2 638.6 629.2 638.4 629.6 637.8C630 637.2 628.8 637.1 626.5 637.6C623.5 638.1 622.9 638 623.5 637C624.1 636 623.5 635.8 620.6 636.3C618.1 636.7 617.2 636.5 617.6 635.8C618.1 635.1 617.4 634.9 615.6 635.4C614 635.8 613 635.6 613 634.9C613 634.2 611.8 634.1 609.8 634.5C607.2 635 606.8 634.9 608 634C609.2 633.1 608.9 633 606.7 633.5C604.6 633.9 604 633.8 604.6 632.9C605.1 632 604.5 631.9 602.6 632.4C600.6 632.9 600 632.7 600.5 631.9C601 631.1 600.6 631 599 631.5C597.3 632 597 631.9 597.5 631C598.1 630 597.6 629.9 595.6 630.4C593.6 630.9 593 630.8 593.6 629.9C594 629.2 593.8 628.9 592.9 629.2C592.1 629.5 590.9 629 590.2 628.3C589.4 627.5 587.9 627.2 586.8 627.6C585.3 628 585 627.9 585.5 626.9C586.1 626 585.7 625.8 584.2 626.2C583 626.6 582.2 626.4 582.5 625.9C583.1 625 578.3 623.4 576.1 623.9C575.4 624 575.1 623.7 575.4 623.2C576.2 621.9 573.4 620.9 571.3 621.7C570.2 622.1 569.9 622 570.4 621.2C571.6 619.2 569.4 619.9 567.4 622.1C564.2 625.6 551 636.4 543.5 641.5C539.7 644.1 536.6 646.7 536.8 647.2C536.9 647.7 536.4 648 535.7 647.8C533.7 647.4 520 654.2 520.6 655.2C521 655.7 520.6 656.1 519.9 655.9C516.7 655.5 514.9 656 515.6 657.2C516.1 658 515.8 658.1 514.7 657.7C512.5 656.9 509.8 657.9 510.6 659.2C511 659.8 510.4 659.9 509 659.5C507.6 659 507 659.2 507.4 659.8C507.8 660.4 507.2 660.6 505.8 660.2C504.3 659.8 503.9 660 504.5 660.9C505.1 661.9 504.7 662 503 661.5C501.4 661 501 661.1 501.5 661.9C502 662.7 501.4 662.9 499.4 662.4C497.4 661.9 496.9 662 497.5 663C498 663.9 497.7 664 496 663.5C494.5 663 494 663.1 494.4 663.9C494.9 664.6 494.1 664.8 491.9 664.3C489.5 663.8 488.9 664 489.5 665C490.1 665.9 489.5 666 487 665.5C484.7 665 484 665.1 484.4 665.9C484.9 666.7 484 666.9 481.1 666.4C478.4 666 477 666.1 477 666.9C477 667.6 474.6 667.8 469.3 667.5C464 667.2 462.5 667.3 464.5 667.9C466.8 668.6 465.8 668.8 460 668.8C454.5 668.8 453.2 668.6 455 667.9C456.6 667.3 454.8 667.2 449.7 667.6C443.7 668 442 667.8 442.6 666.9C443.1 666 442.1 665.8 438.4 666.3C434.8 666.8 433.9 666.7 435 665.9C436.1 665.1 435.7 665 433.3 665.5C431.1 665.9 430 665.8 430 665C430 664.2 428.9 664.1 426.8 664.5C424.2 665 423.8 664.9 425 664C426.2 663.1 425.9 663 423.7 663.5C421.6 663.9 421 663.8 421.6 662.9C422.1 662 421.5 661.9 419.6 662.4C417.6 662.9 417 662.7 417.5 661.9C418 661.1 417.6 661 416 661.5C414.3 662 413.9 661.9 414.5 660.9C415.1 660 414.7 659.8 413.2 660.2C411.8 660.6 411.2 660.4 411.6 659.8C412 659.2 411.4 659 410 659.5C408.3 660 407.9 659.9 408.5 658.9C409.1 658 408.7 657.8 407.2 658.2C406 658.6 405.2 658.4 405.5 657.9C406.1 657 401.3 655.4 399.1 655.9C398.4 656 398.1 655.7 398.5 655.1C399.1 654.1 397.1 653.5 394.1 653.9C393.4 654.1 393.1 653.7 393.5 653.1C394.1 652 392.8 651.6 390.1 651.9C389.4 652.1 389.1 651.7 389.5 651.1C390.1 650 388.8 649.6 386.1 649.9C385.4 650.1 385.1 649.7 385.5 649.1C386.1 648 384.8 647.6 382.2 647.9C381.5 648 381.1 647.5 381.2 646.8C381.4 646.1 380.7 645.6 379.8 645.6C378.8 645.7 378.2 645.3 378.3 644.6C378.4 644 377.7 643.6 376.7 643.6C375.7 643.7 375.1 643.6 375.4 643.3C375.7 643 373.4 640.9 370.2 638.8C363.4 634 353.8 625.9 349.3 621.2C347.4 619.2 345.6 618.1 344.9 618.6C344.1 619 344 618.9 344.4 618.1C344.8 617.4 343.3 614.9 340.6 611.9C338.1 609.1 333.7 603.3 330.9 599.1C328.1 594.9 325.3 591.6 324.8 591.8C324.3 591.9 324 591.5 324.1 590.8C324.4 588.2 324 586.9 322.9 587.5C322.3 587.9 321.9 587.6 322.1 586.9C322.4 584.2 322 582.9 320.9 583.5C320.3 583.9 319.9 583.6 320.1 582.9C320.4 580.1 320 578.9 318.8 579.6C318 580.1 317.9 579.8 318.3 578.7C318.7 577.7 318.5 575.9 317.9 574.6C316.9 572.5 316.4 572.3 313.9 573.2C312.2 573.8 311.3 574.7 311.7 575.3C312.1 575.9 311.7 576.1 310.7 575.7C308.6 574.9 305.8 575.9 306.6 577.2C306.9 577.7 306.6 578.1 305.9 577.9C302.7 577.5 300.9 578 301.6 579.2C302.1 580 301.8 580.1 300.6 579.7C299.5 579.3 299.1 579.4 299.6 580.1C300 580.9 299.5 581 298 580.5C296.4 580 296 580.1 296.5 581C297 581.9 296.6 582 295 581.5C293.4 581 293 581.1 293.5 582C294 582.9 293.6 583 292 582.5C290.4 582 290 582.1 290.5 583C291 583.9 290.6 584 289 583.5C287.6 583 287 583.2 287.4 583.8C287.8 584.4 287.2 584.6 285.8 584.2C284.2 583.8 283.9 584 284.5 585C285.1 586 284.7 586.1 282.6 585.6C281 585.2 280.1 585.3 280.4 585.8C280.7 586.3 279.8 586.5 278.3 586.2C276.4 585.8 275.9 586 276.5 587C277 587.9 276.7 588 275 587.5C273.4 587 273 587.1 273.5 587.9C274 588.7 273.4 588.9 271.4 588.4C269.3 587.9 268.9 588 269.5 589C270.1 590 269.7 590.1 267.6 589.6C265.6 589.1 265 589.3 265.5 590.1C266 590.9 265.4 591 263.1 590.5C261 590.1 260 590.2 260 591C260 591.8 259.1 592 257.4 591.6C255.7 591.1 255 591.3 255.5 592C256 592.8 255.1 592.9 252.5 592.4C249.5 591.9 248.9 592 249.5 593C250.1 594 249.4 594.2 246.1 593.6C243.3 593.2 242.1 593.3 242.5 594C242.9 594.6 241.5 594.8 238.6 594.4C235.3 593.9 234 594.1 234 594.9C234 595.8 232.2 596 227.3 595.5C223.5 595.2 221 595.2 221.7 595.7C222.3 596.1 215 596.5 205.5 596.5C196 596.5 188.7 596.1 189.3 595.7C190 595.3 187.5 595.2 183.8 595.6C178.7 596.1 177 595.9 177 595C177 594.1 175.7 594 172.3 594.4C168.6 594.9 167.9 594.8 169 594C170.2 593.1 169.6 593 166.8 593.5C164.2 593.9 163 593.7 163 592.9C163 592.1 161.8 591.9 159.5 592.3C157.3 592.7 156.2 592.5 156.6 591.9C156.9 591.3 156.1 591.2 154.4 591.6C152.3 592.1 151.9 592 152.5 591C153.1 590 152.6 589.8 150.1 590.3C147.8 590.8 147.1 590.6 147.6 589.8C148.1 589.1 147.5 588.9 145.6 589.4C144 589.8 143 589.6 143 588.9C143 588.2 142.1 588 140.4 588.4C138.6 588.9 138 588.7 138.5 587.9C139 587.1 138.6 587 137 587.5C135.3 588 135 587.9 135.5 587C136.1 586 135.6 585.9 133.6 586.4C131.6 586.9 131 586.7 131.5 585.9C132 585.1 131.6 585 130 585.5C128.3 586 127.9 585.9 128.5 584.9C129.1 584 128.7 583.8 127.2 584.2C125.8 584.6 125.2 584.4 125.6 583.8C126 583.2 125.4 583 124 583.5C122.3 584 121.9 583.9 122.5 582.9C123.1 582 122.7 581.8 121.2 582.2C119.8 582.6 119.2 582.4 119.6 581.8C120 581.2 119.4 581 118 581.5C116.6 581.9 116 581.8 116.4 581.2C117.2 579.9 114.5 578.9 112.3 579.7C111.3 580.1 110.9 579.9 111.3 579.3C112.2 577.9 109.5 576.9 107.3 577.7C106.3 578.1 105.9 577.9 106.3 577.3C107.1 576 100.4 572.9 98.3998 573.7C97.1998 574.1 96.8998 574 97.3998 573.2C98.0998 572 96.8998 571.6 94.0998 571.9C93.3998 572.1 93.0998 571.7 93.4998 571.1C94.0998 570 92.7998 569.6 90.0998 569.9C89.3998 570.1 89.0998 569.7 89.3998 569.1C90.1998 567.9 84.9998 565.1 83.1998 565.7C82.4998 566 82.0998 565.8 82.1998 565.3C82.3998 564.7 77.9998 561.3 72.5998 557.6C59.9998 549.1 47.4998 538.5 37.4998 527.9C33.1998 523.3 29.2998 519.6 28.7998 519.8C28.2998 519.9 27.9998 519.5 28.0998 518.8C28.4998 516.8 21.8998 507 20.6998 507.7C20.0998 508.1 19.8998 507.7 20.1998 506.8C20.8998 505 17.6998 499.6 16.5998 500.7C16.1998 501.2 15.8998 500.8 15.9998 500C16.3998 497.1 15.9998 495.9 14.7998 496.6C13.9998 497.1 13.8998 496.8 14.2998 495.7C14.5998 494.8 14.2998 493.4 13.4998 492.6C12.6998 491.9 12.2998 491 12.5998 490.8C13.3998 490 10.7998 484 9.89977 484.6C9.39977 484.9 9.29977 484.4 9.59977 483.6C9.89977 482.7 9.69977 482 9.09977 482C8.49977 482 8.09977 481.2 8.19977 480.2C8.49977 476.7 7.99977 474.9 6.89977 475.6C6.09977 476 5.99977 475.5 6.49977 474C6.99977 472.4 6.89977 472 6.09977 472.5C5.29977 473 5.09977 472.4 5.59977 470.6C5.99977 468.9 5.79977 468 5.09977 468C4.39977 468 4.19977 467 4.59977 465.4C5.09977 463.6 4.89977 462.9 4.19977 463.4C3.49977 463.8 3.29977 462.9 3.69977 460.4C4.19977 457.6 3.99977 456.9 2.99977 457.5C2.09977 458.1 1.89977 457.3 2.39977 453.9C2.79977 451.5 2.69977 450 2.29977 450.7C1.79977 451.4 1.49977 445.9 1.49977 438.5C1.49977 431.2 1.89977 425.4 2.39977 425.7C2.79977 426 2.89977 424.4 2.49977 422.1C1.99977 419.2 2.19977 418 2.99977 418C3.89977 418 4.09977 417 3.59977 415C3.19977 412.8 3.39977 412.1 4.19977 412.6C4.89977 413.1 5.09977 412.5 4.59977 410.6C4.19977 409 4.39977 408 4.99977 408C5.69977 408 5.89977 407.2 5.49977 405.9C4.99977 404.3 5.09977 404 5.99977 404.5C6.89977 405 6.99977 404.6 6.49977 403C5.99977 401.5 6.09977 401 6.89977 401.4C7.99977 402.1 8.49977 400.3 8.19977 396.7C8.09977 395.6 8.39977 395.2 9.09977 395.6C9.89977 396 9.99977 395.5 9.49977 394C8.99977 392.5 9.09977 392 9.89977 392.4C10.5998 392.9 10.6998 392.5 10.2998 391.4C9.89977 390.3 10.0998 389.9 10.6998 390.3C12.0998 391.2 13.0998 388.5 12.2998 386.3C11.8998 385.2 11.9998 384.9 12.7998 385.4C14.0998 386.2 18.9998 377.2 18.2998 375.2C17.9998 374.5 18.2998 374.1 18.7998 374.2C19.2998 374.4 22.3998 370.8 25.6998 366.2C28.9998 361.7 34.4998 354.7 38.0998 350.8C41.5998 346.8 44.3998 343.2 44.1998 342.8C44.0998 342.4 44.5998 342.1 45.1998 342.2C45.8998 342.4 46.2998 341.8 46.1998 341C45.9998 340.2 46.1998 339.8 46.4998 340.2C46.8998 340.6 50.1998 338.3 53.8998 335.1C57.4998 331.9 64.0998 326.6 68.4998 323.5C72.8998 320.3 76.3998 317.4 76.2998 316.9C76.0998 316.5 76.7998 316.2 77.7998 316.2C80.1998 316.4 87.0998 312 86.3998 310.8C86.0998 310.3 86.3998 309.9 87.0998 310.1C89.7998 310.4 91.0998 310 90.4998 308.9C90.0998 308.3 90.3998 307.9 91.0998 308.1C93.7998 308.4 95.0998 308 94.4998 306.9C94.0998 306.3 94.3998 305.9 95.0998 306.1C97.7998 306.4 99.0998 306 98.4998 304.9C98.0998 304.3 98.3998 303.9 99.0998 304.1C101.9 304.4 103.1 304 102.4 302.8C101.9 302 102.2 301.9 103.3 302.3C105.5 303.1 108.2 302.1 107.3 300.7C106.9 300.1 107.3 299.9 108.3 300.3C110.5 301.1 113.2 300.1 112.3 298.7C111.9 298.1 112.3 297.9 113.3 298.3C115.5 299.1 118.2 298.1 117.4 296.8C117 296.2 117.6 296.1 119 296.5C120.4 297 121 296.8 120.6 296.2C120.2 295.6 120.8 295.4 122.2 295.8C123.7 296.2 124.1 296 123.5 295.1C122.9 294.1 123.3 294 125 294.5C126.6 295 127 294.9 126.5 294.1C126 293.3 126.6 293.1 128.6 293.6C130.5 294.1 131.1 294 130.6 293.1C130.2 292.4 130.6 292.1 131.7 292.2C135.4 292.5 137.1 292 136.4 290.9C135.9 290 136.5 289.9 138.4 290.4C140.3 290.9 141 290.7 140.5 290C140 289.3 140.7 289.1 142.6 289.6C144.7 290.1 145.1 290 144.5 289C143.9 288 144.3 287.9 146.4 288.4C148.2 288.8 148.9 288.7 148.5 288.1C148.1 287.4 149 287.3 151.1 287.7C153.5 288.2 154.1 288 153.5 287C152.9 286.1 153.5 286 156 286.5C158.4 287 159.1 286.9 158.5 286C158 285.2 158.8 285.1 161.5 285.6C164.4 286.1 165.1 286 164.5 285C163.9 284.1 164.8 283.9 168.1 284.4C171.4 285 172.1 284.8 171 284C169.9 283.2 170.9 283.1 175.3 283.6C179.3 284 181 283.9 181 283.1C181 282.3 183.4 282.1 189.3 282.5C194.7 282.8 196.6 282.7 195 282.1C193.3 281.5 197.2 281.2 206.5 281.2C215.5 281.2 219.6 281.5 218 282.1C216.5 282.6 218.5 282.7 223.4 282.3C229.7 281.9 231.1 282 230.5 283C229.9 284 230.9 284.2 235.6 283.6C239.9 283.2 241.1 283.3 240 284.1C238.9 284.8 239.7 284.9 242.9 284.4C246 284 247.1 284.1 246.6 284.9C246.1 285.6 246.7 286 248.1 286C250.2 286 250.2 285.7 249.6 280.2C249.2 276 249.3 274.9 250.1 276C250.9 277.1 251 276.7 250.5 274.1C250 271.8 250.1 271 250.9 271.4C252 272.1 252.5 269.7 252.1 265.2C252 263.6 252.3 263.1 253.1 263.6C254 264.1 254.1 263.6 253.6 261.6C253.2 259.8 253.3 259.1 253.9 259.5C254.6 259.9 254.7 259.4 254.3 258.4C253.9 257.2 254 256.9 254.8 257.4C256 258.1 256.5 256.4 256.2 252.7C256.1 251.7 256.4 251.1 256.8 251.4C257.3 251.7 259.2 248.7 261.1 244.9C262.9 241 265 237.4 265.7 236.8C267.4 235.4 267.3 234.3 265.5 234.3C264.7 234.3 263.4 235.3 262.6 236.4ZM1087.1 297.7C1088.4 299.3 1088.3 299.4 1086.8 298.1C1085.8 297.4 1085 296.6 1085 296.4C1085 295.6 1085.8 296.1 1087.1 297.7ZM1091.5 301C1092.5 302.1 1093.1 303 1092.8 303C1092.5 303 1091.5 302.1 1090.5 301C1089.5 299.9 1088.9 299 1089.2 299C1089.5 299 1090.5 299.9 1091.5 301ZM1107 314.5C1108.3 315.9 1109.1 317 1108.8 317C1108.6 317 1107.3 315.9 1106 314.5C1104.7 313.1 1103.9 312 1104.2 312C1104.4 312 1105.7 313.1 1107 314.5ZM1113 321.5C1114.9 323.4 1116.2 325 1115.9 325C1115.6 325 1113.9 323.4 1112 321.5C1110.1 319.6 1108.8 318 1109.1 318C1109.4 318 1111.1 319.6 1113 321.5ZM67.9998 322.4C67.9998 322.7 66.4998 323.8 64.7998 325L61.4998 327.2L64.4998 324.6C67.5998 321.9 67.9998 321.7 67.9998 322.4ZM60.9998 327.3C60.9998 327.5 59.9998 328.5 58.7998 329.6L56.4998 331.5L58.3998 329.2C60.1998 327.1 60.9998 326.5 60.9998 327.3ZM54.9998 332.3C54.9998 332.5 53.2998 334.2 51.2998 336.1L47.4998 339.5L50.8998 335.7C54.1998 332.3 54.9998 331.5 54.9998 332.3ZM1212.5 340C1212.8 340.6 1212.4 340.7 1211.6 340.4C1209.8 339.7 1209.5 339 1210.9 339C1211.5 339 1212.2 339.4 1212.5 340ZM40.9998 346.3C40.9998 346.5 39.2998 348.2 37.2998 350.1L33.4998 353.5L36.8998 349.7C40.1998 346.3 40.9998 345.5 40.9998 346.3ZM1231.5 353C1232.5 354.1 1233.1 355 1232.8 355C1232.5 355 1231.5 354.1 1230.5 353C1229.5 351.9 1228.9 351 1229.2 351C1229.5 351 1230.5 351.9 1231.5 353ZM32.9998 355.4C32.9998 355.6 32.1998 356.4 31.2998 357.1C29.6998 358.4 29.5998 358.3 30.8998 356.7C32.1998 355.1 32.9998 354.6 32.9998 355.4ZM1242 362.5C1245.5 366.1 1248.2 369 1247.9 369C1247.7 369 1244.5 366.1 1241 362.5C1237.5 358.9 1234.8 356 1235.1 356C1235.3 356 1238.5 358.9 1242 362.5ZM26.9998 363C25.7998 364.6 24.5998 366 24.3998 366C24.0998 366 24.7998 364.6 25.9998 363C27.1998 361.3 28.3998 360 28.5998 360C28.8998 360 28.1998 361.3 26.9998 363ZM1251.1 372.7C1252.4 374.3 1252.3 374.4 1250.8 373.1C1249.8 372.4 1249 371.6 1249 371.4C1249 370.6 1249.8 371.1 1251.1 372.7ZM1265 394.1C1266.2 396.4 1267 398.4 1266.8 398.6C1266.5 398.8 1265.4 396.9 1264.2 394.5C1261.5 388.9 1262.2 388.5 1265 394.1ZM18.9998 504C19.5998 505.1 19.7998 506 19.5998 506C19.2998 506 18.5998 505.1 17.9998 504C17.3998 502.9 17.1998 502 17.3998 502C17.6998 502 18.3998 502.9 18.9998 504ZM1262 507C1261.4 508.1 1260.7 509 1260.4 509C1260.2 509 1260.4 508.1 1261 507C1261.6 505.9 1262.3 505 1262.6 505C1262.8 505 1262.6 505.9 1262 507ZM27.0998 516.7C28.3998 518.3 28.2998 518.4 26.7998 517.1C25.7998 516.4 24.9998 515.6 24.9998 515.4C24.9998 514.6 25.7998 515.1 27.0998 516.7ZM1254 519.4C1254 519.6 1253.2 520.4 1252.3 521.1C1250.7 522.4 1250.6 522.3 1251.9 520.7C1253.2 519.1 1254 518.6 1254 519.4ZM1251 523.4C1251 523.6 1250.2 524.4 1249.3 525.1C1247.7 526.4 1247.6 526.3 1248.9 524.7C1250.2 523.1 1251 522.6 1251 523.4ZM35.5998 527.2L38.4998 530.5L35.2998 527.6C32.1998 524.8 31.4998 524 32.2998 524C32.4998 524 33.8998 525.5 35.5998 527.2ZM1247 528.3C1247 528.4 1244.2 531.2 1240.8 534.5L1234.5 540.5L1240.5 534.2C1246 528.4 1247 527.5 1247 528.3ZM46.4998 538C49.7998 541.3 52.1998 544 51.8998 544C51.6998 544 48.7998 541.3 45.4998 538C42.1998 534.7 39.7998 532 40.0998 532C40.2998 532 43.1998 534.7 46.4998 538ZM1233 541.3C1233 541.5 1232 542.5 1230.8 543.6L1228.5 545.5L1230.4 543.2C1232.2 541.1 1233 540.5 1233 541.3ZM55.4998 546C56.4998 547.1 57.0998 548 56.7998 548C56.4998 548 55.4998 547.1 54.4998 546C53.4998 544.9 52.8998 544 53.1998 544C53.4998 544 54.4998 544.9 55.4998 546ZM1228 545.4C1228 545.6 1227.2 546.4 1226.3 547.1C1224.7 548.4 1224.6 548.3 1225.9 546.7C1227.2 545.1 1228 544.6 1228 545.4ZM61.0998 550.7C62.3998 552.3 62.2998 552.4 60.7998 551.1C59.7998 550.4 58.9998 549.6 58.9998 549.4C58.9998 548.6 59.7998 549.1 61.0998 550.7ZM1155.8 572.7C1154.3 572.9 1151.6 572.9 1149.8 572.7C1148 572.5 1149.2 572.3 1152.5 572.3C1155.8 572.3 1157.3 572.5 1155.8 572.7ZM1132 577.4C1132 577.6 1131.2 578.4 1130.3 579.1C1128.7 580.4 1128.6 580.3 1129.9 578.7C1131.2 577.1 1132 576.6 1132 577.4ZM1115 598.3C1115 598.4 1112.2 601.2 1108.8 604.5L1102.5 610.5L1108.5 604.2C1114 598.4 1115 597.5 1115 598.3ZM333.1 603.7C334.4 605.3 334.3 605.4 332.8 604.1C331.8 603.4 331 602.6 331 602.4C331 601.6 331.8 602.1 333.1 603.7ZM773.1 607.7L775.5 610.5L772.8 608.1C771.2 606.8 769.6 606.1 768.9 606.5C768.1 607 767.9 606.9 768.4 606.2C769.5 604.4 770.4 604.7 773.1 607.7ZM336.1 607.7C337.4 609.3 337.3 609.4 335.8 608.1C334.8 607.4 334 606.6 334 606.4C334 605.6 334.8 606.1 336.1 607.7ZM340.6 613.2L343.5 616.5L340.3 613.6C337.2 610.8 336.5 610 337.3 610C337.5 610 338.9 611.5 340.6 613.2ZM1100 612.3C1100 612.5 1098.8 613.7 1097.3 615.1L1094.5 617.5L1096.9 614.7C1099.2 612.2 1100 611.5 1100 612.3ZM781.5 615C782.5 616.1 783.1 617 782.8 617C782.5 617 781.5 616.1 780.5 615C779.5 613.9 778.9 613 779.2 613C779.5 613 780.5 613.9 781.5 615ZM787.5 620C788.5 621.1 789.1 622 788.8 622C788.5 622 787.5 621.1 786.5 620C785.5 618.9 784.9 618 785.2 618C785.5 618 786.5 618.9 787.5 620ZM1093 618.4C1093 618.6 1092.2 619.4 1091.3 620.1C1089.7 621.4 1089.6 621.3 1090.9 619.7C1092.2 618.1 1093 617.6 1093 618.4ZM349 622.5C350.9 624.4 352.2 626 351.9 626C351.6 626 349.9 624.4 348 622.5C346.1 620.6 344.8 619 345.1 619C345.4 619 347.1 620.6 349 622.5ZM742 622C741.2 622.5 740.1 623 739.5 623C739 623 739.2 622.5 740 622C740.8 621.5 742 621 742.5 621C743.1 621 742.8 621.5 742 622ZM1089 621.4C1089 621.6 1088.2 622.4 1087.3 623.1C1085.7 624.4 1085.6 624.3 1086.9 622.7C1088.2 621.1 1089 620.6 1089 621.4ZM568 623.3C568 623.5 566.3 625.2 564.3 627.1L560.5 630.5L563.9 626.7C567.2 623.3 568 622.5 568 623.3ZM357 629.5C358.3 630.9 359.1 632 358.8 632C358.6 632 357.3 630.9 356 629.5C354.7 628.1 353.9 627 354.2 627C354.4 627 355.7 628.1 357 629.5ZM559 631.3C559 631.5 558 632.5 556.8 633.6L554.5 635.5L556.4 633.2C558.2 631.1 559 630.5 559 631.3ZM363.1 634.7C364.4 636.3 364.3 636.4 362.8 635.1C361.8 634.4 361 633.6 361 633.4C361 632.6 361.8 633.1 363.1 634.7ZM554 635.4C554 635.6 553.2 636.4 552.3 637.1C550.7 638.4 550.6 638.3 551.9 636.7C553.2 635.1 554 634.6 554 635.4ZM1069 635.5C1069 635.7 1068 636.4 1066.8 637C1064.6 638.1 1064.6 638 1066.4 636.6C1068.5 634.9 1069 634.7 1069 635.5ZM367.1 637.7C368.4 639.3 368.3 639.4 366.8 638.1C365.1 636.8 364.6 636 365.4 636C365.6 636 366.4 636.8 367.1 637.7ZM1064 638.5C1064 638.7 1063 639.4 1061.8 640C1059.6 641.1 1059.6 641 1061.4 639.6C1063.5 637.9 1064 637.7 1064 638.5ZM547 640.4C547 640.6 546.2 641.4 545.3 642.1C543.7 643.4 543.6 643.3 544.9 641.7C546.2 640.1 547 639.6 547 640.4ZM829.9 646.6C831.3 647.8 828 646.7 826.4 645.4C824.6 644 824.6 644 827 645.1C828.4 645.7 829.7 646.4 829.9 646.6ZM1041.5 650C1041.2 650.5 1040.3 651 1039.7 651C1039 651 1039.1 650.6 1040 650C1041.9 648.8 1042.3 648.8 1041.5 650ZM527.6 652.5C526.5 653.3 525.1 654 524.6 654C524 653.9 524.6 653.3 526 652.5C529.2 650.6 530 650.7 527.6 652.5Z" fill="white"/>
</svg>
