<svg id="humidity" enable-background="new 0 0 512 512"  viewBox="0 0 512 512"  xmlns="http://www.w3.org/2000/svg"><g><g fill="#97bcfc"><path d="m500.645 110.166c0 26.396-20.24 47.871-45.11 47.871h-.01c-24.88-.01-45.11-21.475-45.11-47.871 0-21.555 25.41-56.443 33.2-66.626 2.84-3.711 7.24-5.881 11.91-5.881h.01c4.67 0 9.07 2.17 11.91 5.881 7.79 10.183 33.2 45.071 33.2 66.626z"/><path d="m500.645 260.791c0 26.396-20.24 47.871-45.11 47.871h-.01c-24.88-.01-45.11-21.475-45.11-47.871 0-21.555 25.41-56.443 33.2-66.626 2.84-3.711 7.24-5.892 11.91-5.892h.01c4.67 0 9.07 2.18 11.91 5.892 7.79 10.183 33.2 45.071 33.2 66.626z"/><path d="m500.645 411.416c0 26.396-20.24 47.872-45.11 47.872h-.01c-24.88-.01-45.11-21.475-45.11-47.872 0-21.555 25.41-56.453 33.2-66.625 2.84-3.711 7.24-5.892 11.91-5.892h.01c4.67 0 9.07 2.181 11.91 5.892 7.79 10.172 33.2 45.07 33.2 66.625z"/></g><path d="m467.445 344.791c7.79 10.172 33.2 45.071 33.2 66.625 0 26.396-20.24 47.872-45.11 47.872h-.01v-120.389h.01c4.67 0 9.07 2.181 11.91 5.892z" fill="#7fa6fb"/><path d="m467.445 194.166c7.79 10.182 33.2 45.071 33.2 66.626 0 26.396-20.24 47.871-45.11 47.871h-.01v-120.389h.01c4.67 0 9.07 2.18 11.91 5.892z" fill="#7fa6fb"/><path d="m455.535 158.037h-.01v-120.378h.01c4.67 0 9.07 2.17 11.91 5.881 7.79 10.183 33.2 45.071 33.2 66.626 0 26.396-20.24 47.871-45.11 47.871z" fill="#7fa6fb"/><path d="m222.055 406.615c0 58.114-47.26 105.385-105.34 105.385h-.01c-58.1-.01-105.35-47.271-105.35-105.385 0-22.108 6.937-43.529 19.696-61.343 1.854-2.589 2.894-5.671 2.894-8.855v-253.638c0-45.717 37.053-82.779 82.76-82.779h.01c45.702 0 82.75 37.057 82.75 82.769v82.919l-14.41 15.004 14.41 15.004v30.237l-7.99 13.153 7.99 16.854v30.247l-12.8 15.004 12.8 15.004v20.22c0 3.186 1.041 6.269 2.897 8.858 12.764 17.814 19.693 39.235 19.693 61.342z" fill="#eef4ff"/><path d="m222.055 406.615c0 58.114-47.26 105.385-105.34 105.385h-.01v-512h.01c45.702 0 82.75 37.057 82.75 82.769v82.919l-14.41 15.004 14.41 15.004v30.237l-7.99 13.153 7.99 16.854v30.247l-12.8 15.004 12.8 15.004v20.22c0 3.186 1.041 6.269 2.897 8.858 12.764 17.814 19.693 39.235 19.693 61.342z" fill="#d9e6fc"/><path d="m199.465 286.187v30.007h-82.75c-8.29 0-15-6.722-15-15.004 0-8.292 6.71-15.004 15-15.004h82.75z" fill="#bed9fd"/><path d="m199.465 225.933v30.007h-82.75c-8.29 0-15-6.712-15-15.004 0-8.282 6.71-15.004 15-15.004h82.75z" fill="#bed9fd"/><path d="m199.465 165.689v30.007h-82.75c-8.29 0-15-6.721-15-15.004 0-8.292 6.71-15.004 15-15.004h82.75z" fill="#bed9fd"/><path d="m161.825 406.625c0 24.876-20.24 45.131-45.11 45.131h-.01c-24.88-.01-45.11-20.255-45.11-45.131 0-19.625 12.59-36.358 30.12-42.56v-243.627c0-8.282 6.7-14.994 14.99-15.004h.01c8.28 0 15 6.722 15 15.004v243.627c17.52 6.202 30.11 22.935 30.11 42.56z" fill="#e27a4e"/><path d="m161.825 406.625c0 24.876-20.24 45.131-45.11 45.131h-.01v-346.321h.01c8.28 0 15 6.722 15 15.004v243.627c17.52 6.201 30.11 22.934 30.11 42.559z" fill="#dc455b"/><path d="m350.31 177.162c-2.81 2.34-6.21 3.481-9.6 3.481-4.3 0-8.56-1.841-11.53-5.402l-11.12-13.353v169.9c0 8.292-6.72 15.004-15 15.004h-.01c-8.29-.01-14.99-6.712-14.99-15.004v-169.92l-11.14 13.373c-5.31 6.362-14.77 7.222-21.13 1.921-6.37-5.302-7.23-14.764-1.92-21.125l37.65-45.201c2.85-3.421 7.08-5.401 11.53-5.401s8.67 1.98 11.52 5.401l37.66 45.201c5.3 6.361 4.44 15.823-1.92 21.125z" fill="#e27a4e"/><path d="m350.31 177.162c-2.81 2.34-6.21 3.481-9.6 3.481-4.3 0-8.56-1.841-11.53-5.402l-11.12-13.353v169.9c0 8.292-6.72 15.004-15 15.004h-.01v-241.357c4.45 0 8.67 1.98 11.52 5.401l37.66 45.201c5.3 6.361 4.44 15.823-1.92 21.125z" fill="#dc455b"/></g></svg>
