<svg id="moon"  viewBox="0 0 464 512" fill="none" xmlns="http://www.w3.org/2000/svg">
<path d="M400.725 415.125C262.577 415.125 150.592 303.136 150.592 164.992C150.592 105.89 171.205 51.6712 205.48 8.86523C93.3075 33.5612 9.31445 133.406 9.31445 253.002C9.31445 391.144 121.299 503.135 259.447 503.135C338.486 503.135 408.85 466.378 454.687 409.129C437.289 412.96 419.272 415.125 400.725 415.125Z" fill="#FAE202"/>
<path d="M213.122 439.83C228.471 439.83 240.914 427.387 240.914 412.038C240.914 396.689 228.471 384.246 213.122 384.246C197.773 384.246 185.33 396.689 185.33 412.038C185.33 427.387 197.773 439.83 213.122 439.83Z" fill="#EED80B"/>
<path d="M113.531 308.589C126.322 308.589 136.691 298.219 136.691 285.429C136.691 272.638 126.322 262.269 113.531 262.269C100.74 262.269 90.3711 272.638 90.3711 285.429C90.3711 298.219 100.74 308.589 113.531 308.589Z" fill="#EED80B"/>
<path d="M77.2463 246.056C87.9054 246.056 96.5463 237.415 96.5463 226.756C96.5463 216.097 87.9054 207.456 77.2463 207.456C66.5872 207.456 57.9463 216.097 57.9463 226.756C57.9463 237.415 66.5872 246.056 77.2463 246.056Z" fill="#EED80B"/>
<path d="M150.563 168.998C150.545 168.998 150.526 168.992 150.504 168.992C129.614 168.992 112.678 185.929 112.678 206.821C112.678 227.713 129.614 244.65 150.504 244.65C154.797 244.65 158.85 243.78 162.695 242.465C155.155 219.272 150.956 194.61 150.563 168.998Z" fill="#EED80B"/>
<path d="M269.026 502.932C270.737 502.867 272.45 502.808 274.153 502.709C274.788 502.672 275.415 502.613 276.049 502.572C277.846 502.454 279.642 502.337 281.427 502.181C281.923 502.137 282.415 502.076 282.91 502.03C284.824 501.852 286.736 501.668 288.637 501.446C289.159 501.385 289.675 501.305 290.196 501.242C292.066 501.012 293.934 500.779 295.791 500.507C296.116 500.46 296.436 500.399 296.76 500.351C298.807 500.044 300.85 499.723 302.879 499.366C303.068 499.333 303.255 499.292 303.444 499.258C305.606 498.874 307.759 498.467 309.902 498.028C309.945 498.019 309.987 498.008 310.031 498C368.06 486.046 418.707 453.939 454.48 409.379C437.387 413.07 419.689 415.126 401.493 415.126C401.395 415.126 401.297 415.12 401.199 415.119C401.041 415.119 400.883 415.126 400.724 415.126C397.3 415.126 393.897 415.037 390.507 414.901C351.765 454.96 297.569 479.974 237.443 479.974C119.759 479.974 24.3684 384.577 24.3684 266.899C24.3684 172.114 86.2874 91.8472 171.858 64.1802C180.682 44.2482 192.023 25.6752 205.481 8.86621C109.083 30.0872 33.4974 106.809 14.1434 203.869C14.1314 203.93 14.1214 203.993 14.1084 204.055C13.7704 205.756 13.4474 207.463 13.1454 209.176C13.1084 209.38 13.0794 209.587 13.0434 209.792C12.7694 211.365 12.5044 212.942 12.2594 214.525C12.2094 214.849 12.1684 215.176 12.1184 215.501C11.8974 216.969 11.6814 218.438 11.4864 219.914C11.4304 220.336 11.3864 220.761 11.3324 221.183C11.1564 222.566 10.9814 223.95 10.8284 225.341C10.7684 225.889 10.7224 226.443 10.6644 226.992C10.5334 228.261 10.3994 229.53 10.2874 230.804C10.2244 231.513 10.1794 232.226 10.1234 232.936C10.0344 234.058 9.9394 235.177 9.8644 236.302C9.8044 237.21 9.76441 238.122 9.71441 239.032C9.66241 239.966 9.60241 240.897 9.56041 241.834C9.50841 243.025 9.47741 244.222 9.44241 245.416C9.42241 246.078 9.3914 246.736 9.3774 247.399C9.3364 249.261 9.31641 251.127 9.31641 252.999C9.31641 391.141 121.301 503.132 259.449 503.132C261.917 503.132 264.377 503.095 266.828 503.024C267.561 503.006 268.292 502.959 269.026 502.932Z" fill="#EED80B"/>
<path d="M58.6187 103.706C60.2547 105.018 62.2127 105.655 64.1597 105.655C66.7567 105.655 69.3297 104.519 71.0797 102.336C72.4177 100.668 73.8037 98.9864 75.1997 97.3384C78.3637 93.6024 77.8997 88.0085 74.1627 84.8455C70.4267 81.6805 64.8327 82.1455 61.6697 85.8825C60.1737 87.6495 58.6867 89.4535 57.2497 91.2445C54.1867 95.0655 54.7987 100.643 58.6187 103.706Z" fill="#1C2042"/>
<path d="M462.215 404.449C460.231 401.258 456.452 399.657 452.781 400.473C435.337 404.314 417.823 406.261 400.726 406.261C267.69 406.261 159.458 298.029 159.458 164.993C159.458 109.736 177.765 57.6644 212.401 14.4074C214.75 11.4754 214.994 7.37939 213.01 4.18839C211.027 0.996393 207.246 -0.603607 203.576 0.211393C160.839 9.61839 120.84 29.9794 87.9052 59.0924C84.2362 62.3344 83.8912 67.9354 87.1342 71.6044C90.3752 75.2734 95.9772 75.6184 99.6462 72.3754C124.102 50.7574 152.733 34.3214 183.5 24.1034C156.095 66.0434 141.728 114.269 141.728 164.993C141.728 234.173 168.668 299.214 217.585 348.131C266.503 397.051 331.543 423.991 400.725 423.991C410.837 423.991 421.076 423.359 431.354 422.105C386.109 468.243 324.708 494.272 259.446 494.272C126.411 494.272 18.1792 386.04 18.1792 253.004C18.1792 218.407 25.3492 185.021 39.4912 153.773C41.5102 149.314 39.5302 144.061 35.0692 142.042C30.6082 140.023 25.3562 142.003 23.3382 146.464C8.1502 180.024 0.450195 215.87 0.450195 253.005C0.450195 322.185 27.3902 387.226 76.3072 436.143C125.224 485.059 190.264 512 259.446 512C338.396 512 412.081 476.524 461.606 414.669C463.955 411.737 464.199 407.641 462.215 404.449Z" fill="#1C2042"/>
</svg>
